%TF.GenerationSoftware,KiCad,Pcbnew,(6.0.1-0)*%
%TF.CreationDate,2022-11-21T00:33:54+01:00*%
%TF.ProjectId,flowmeter,666c6f77-6d65-4746-9572-2e6b69636164,rev?*%
%TF.SameCoordinates,Original*%
%TF.FileFunction,Legend,Bot*%
%TF.FilePolarity,Positive*%
%FSLAX46Y46*%
G04 Gerber Fmt 4.6, Leading zero omitted, Abs format (unit mm)*
G04 Created by KiCad (PCBNEW (6.0.1-0)) date 2022-11-21 00:33:54*
%MOMM*%
%LPD*%
G01*
G04 APERTURE LIST*
%ADD10C,0.202500*%
%ADD11C,0.200000*%
G04 APERTURE END LIST*
D10*
X164036428Y-72208571D02*
X164615000Y-72208571D01*
X164730714Y-72170000D01*
X164807857Y-72092857D01*
X164846428Y-71977142D01*
X164846428Y-71900000D01*
X164846428Y-72980000D02*
X164846428Y-72594285D01*
X164036428Y-72594285D01*
X164769285Y-73712857D02*
X164807857Y-73674285D01*
X164846428Y-73558571D01*
X164846428Y-73481428D01*
X164807857Y-73365714D01*
X164730714Y-73288571D01*
X164653571Y-73250000D01*
X164499285Y-73211428D01*
X164383571Y-73211428D01*
X164229285Y-73250000D01*
X164152142Y-73288571D01*
X164075000Y-73365714D01*
X164036428Y-73481428D01*
X164036428Y-73558571D01*
X164075000Y-73674285D01*
X164113571Y-73712857D01*
X164036428Y-74291428D02*
X164615000Y-74291428D01*
X164730714Y-74252857D01*
X164807857Y-74175714D01*
X164846428Y-74060000D01*
X164846428Y-73982857D01*
X164846428Y-75062857D02*
X164846428Y-74677142D01*
X164036428Y-74677142D01*
X164769285Y-75795714D02*
X164807857Y-75757142D01*
X164846428Y-75641428D01*
X164846428Y-75564285D01*
X164807857Y-75448571D01*
X164730714Y-75371428D01*
X164653571Y-75332857D01*
X164499285Y-75294285D01*
X164383571Y-75294285D01*
X164229285Y-75332857D01*
X164152142Y-75371428D01*
X164075000Y-75448571D01*
X164036428Y-75564285D01*
X164036428Y-75641428D01*
X164075000Y-75757142D01*
X164113571Y-75795714D01*
X164036428Y-76374285D02*
X164615000Y-76374285D01*
X164730714Y-76335714D01*
X164807857Y-76258571D01*
X164846428Y-76142857D01*
X164846428Y-76065714D01*
X164846428Y-77145714D02*
X164846428Y-76760000D01*
X164036428Y-76760000D01*
X164769285Y-77878571D02*
X164807857Y-77840000D01*
X164846428Y-77724285D01*
X164846428Y-77647142D01*
X164807857Y-77531428D01*
X164730714Y-77454285D01*
X164653571Y-77415714D01*
X164499285Y-77377142D01*
X164383571Y-77377142D01*
X164229285Y-77415714D01*
X164152142Y-77454285D01*
X164075000Y-77531428D01*
X164036428Y-77647142D01*
X164036428Y-77724285D01*
X164075000Y-77840000D01*
X164113571Y-77878571D01*
X164036428Y-78457142D02*
X164615000Y-78457142D01*
X164730714Y-78418571D01*
X164807857Y-78341428D01*
X164846428Y-78225714D01*
X164846428Y-78148571D01*
X164846428Y-79228571D02*
X164846428Y-78842857D01*
X164036428Y-78842857D01*
X164769285Y-79961428D02*
X164807857Y-79922857D01*
X164846428Y-79807142D01*
X164846428Y-79730000D01*
X164807857Y-79614285D01*
X164730714Y-79537142D01*
X164653571Y-79498571D01*
X164499285Y-79460000D01*
X164383571Y-79460000D01*
X164229285Y-79498571D01*
X164152142Y-79537142D01*
X164075000Y-79614285D01*
X164036428Y-79730000D01*
X164036428Y-79807142D01*
X164075000Y-79922857D01*
X164113571Y-79961428D01*
D11*
X162213571Y-95870000D02*
X162213571Y-95536666D01*
X162737380Y-95536666D02*
X161737380Y-95536666D01*
X161737380Y-96012857D01*
X162737380Y-96536666D02*
X162689761Y-96441428D01*
X162594523Y-96393809D01*
X161737380Y-96393809D01*
X162737380Y-97060476D02*
X162689761Y-96965238D01*
X162642142Y-96917619D01*
X162546904Y-96870000D01*
X162261190Y-96870000D01*
X162165952Y-96917619D01*
X162118333Y-96965238D01*
X162070714Y-97060476D01*
X162070714Y-97203333D01*
X162118333Y-97298571D01*
X162165952Y-97346190D01*
X162261190Y-97393809D01*
X162546904Y-97393809D01*
X162642142Y-97346190D01*
X162689761Y-97298571D01*
X162737380Y-97203333D01*
X162737380Y-97060476D01*
X162070714Y-97727142D02*
X162737380Y-97917619D01*
X162261190Y-98108095D01*
X162737380Y-98298571D01*
X162070714Y-98489047D01*
X162737380Y-98870000D02*
X162070714Y-98870000D01*
X162165952Y-98870000D02*
X162118333Y-98917619D01*
X162070714Y-99012857D01*
X162070714Y-99155714D01*
X162118333Y-99250952D01*
X162213571Y-99298571D01*
X162737380Y-99298571D01*
X162213571Y-99298571D02*
X162118333Y-99346190D01*
X162070714Y-99441428D01*
X162070714Y-99584285D01*
X162118333Y-99679523D01*
X162213571Y-99727142D01*
X162737380Y-99727142D01*
X162689761Y-100584285D02*
X162737380Y-100489047D01*
X162737380Y-100298571D01*
X162689761Y-100203333D01*
X162594523Y-100155714D01*
X162213571Y-100155714D01*
X162118333Y-100203333D01*
X162070714Y-100298571D01*
X162070714Y-100489047D01*
X162118333Y-100584285D01*
X162213571Y-100631904D01*
X162308809Y-100631904D01*
X162404047Y-100155714D01*
X162070714Y-100917619D02*
X162070714Y-101298571D01*
X161737380Y-101060476D02*
X162594523Y-101060476D01*
X162689761Y-101108095D01*
X162737380Y-101203333D01*
X162737380Y-101298571D01*
X162689761Y-102012857D02*
X162737380Y-101917619D01*
X162737380Y-101727142D01*
X162689761Y-101631904D01*
X162594523Y-101584285D01*
X162213571Y-101584285D01*
X162118333Y-101631904D01*
X162070714Y-101727142D01*
X162070714Y-101917619D01*
X162118333Y-102012857D01*
X162213571Y-102060476D01*
X162308809Y-102060476D01*
X162404047Y-101584285D01*
X162737380Y-102489047D02*
X162070714Y-102489047D01*
X162261190Y-102489047D02*
X162165952Y-102536666D01*
X162118333Y-102584285D01*
X162070714Y-102679523D01*
X162070714Y-102774761D01*
X161737380Y-103727142D02*
X162737380Y-104060476D01*
X161737380Y-104393809D01*
X162737380Y-105250952D02*
X162737380Y-104679523D01*
X162737380Y-104965238D02*
X161737380Y-104965238D01*
X161880238Y-104870000D01*
X161975476Y-104774761D01*
X162023095Y-104679523D01*
X164347380Y-97750952D02*
X163347380Y-97750952D01*
X164347380Y-98322380D01*
X163347380Y-98322380D01*
X164347380Y-98798571D02*
X163680714Y-98798571D01*
X163347380Y-98798571D02*
X163395000Y-98750952D01*
X163442619Y-98798571D01*
X163395000Y-98846190D01*
X163347380Y-98798571D01*
X163442619Y-98798571D01*
X164299761Y-99703333D02*
X164347380Y-99608095D01*
X164347380Y-99417619D01*
X164299761Y-99322380D01*
X164252142Y-99274761D01*
X164156904Y-99227142D01*
X163871190Y-99227142D01*
X163775952Y-99274761D01*
X163728333Y-99322380D01*
X163680714Y-99417619D01*
X163680714Y-99608095D01*
X163728333Y-99703333D01*
X164347380Y-100131904D02*
X163347380Y-100131904D01*
X163966428Y-100227142D02*
X164347380Y-100512857D01*
X163680714Y-100512857D02*
X164061666Y-100131904D01*
X163871190Y-101893809D02*
X164347380Y-101893809D01*
X163347380Y-101560476D02*
X163871190Y-101893809D01*
X163347380Y-102227142D01*
X163680714Y-102989047D02*
X164347380Y-102989047D01*
X163680714Y-102560476D02*
X164204523Y-102560476D01*
X164299761Y-102608095D01*
X164347380Y-102703333D01*
X164347380Y-102846190D01*
X164299761Y-102941428D01*
X164252142Y-102989047D01*
M02*
