%TF.GenerationSoftware,KiCad,Pcbnew,(6.0.1-0)*%
%TF.CreationDate,2022-11-21T00:33:54+01:00*%
%TF.ProjectId,flowmeter,666c6f77-6d65-4746-9572-2e6b69636164,rev?*%
%TF.SameCoordinates,Original*%
%TF.FileFunction,Legend,Top*%
%TF.FilePolarity,Positive*%
%FSLAX46Y46*%
G04 Gerber Fmt 4.6, Leading zero omitted, Abs format (unit mm)*
G04 Created by KiCad (PCBNEW (6.0.1-0)) date 2022-11-21 00:33:54*
%MOMM*%
%LPD*%
G01*
G04 APERTURE LIST*
%ADD10C,0.150000*%
%ADD11C,0.120000*%
G04 APERTURE END LIST*
D10*
X160258571Y-126407142D02*
X160306190Y-126264285D01*
X160353809Y-126216666D01*
X160449047Y-126169047D01*
X160591904Y-126169047D01*
X160687142Y-126216666D01*
X160734761Y-126264285D01*
X160782380Y-126359523D01*
X160782380Y-126740476D01*
X159782380Y-126740476D01*
X159782380Y-126407142D01*
X159830000Y-126311904D01*
X159877619Y-126264285D01*
X159972857Y-126216666D01*
X160068095Y-126216666D01*
X160163333Y-126264285D01*
X160210952Y-126311904D01*
X160258571Y-126407142D01*
X160258571Y-126740476D01*
X159782380Y-125550000D02*
X159782380Y-125359523D01*
X159830000Y-125264285D01*
X159925238Y-125169047D01*
X160115714Y-125121428D01*
X160449047Y-125121428D01*
X160639523Y-125169047D01*
X160734761Y-125264285D01*
X160782380Y-125359523D01*
X160782380Y-125550000D01*
X160734761Y-125645238D01*
X160639523Y-125740476D01*
X160449047Y-125788095D01*
X160115714Y-125788095D01*
X159925238Y-125740476D01*
X159830000Y-125645238D01*
X159782380Y-125550000D01*
X159782380Y-124502380D02*
X159782380Y-124311904D01*
X159830000Y-124216666D01*
X159925238Y-124121428D01*
X160115714Y-124073809D01*
X160449047Y-124073809D01*
X160639523Y-124121428D01*
X160734761Y-124216666D01*
X160782380Y-124311904D01*
X160782380Y-124502380D01*
X160734761Y-124597619D01*
X160639523Y-124692857D01*
X160449047Y-124740476D01*
X160115714Y-124740476D01*
X159925238Y-124692857D01*
X159830000Y-124597619D01*
X159782380Y-124502380D01*
X159782380Y-123788095D02*
X159782380Y-123216666D01*
X160782380Y-123502380D02*
X159782380Y-123502380D01*
X141962380Y-126392380D02*
X141486190Y-126725714D01*
X141962380Y-126963809D02*
X140962380Y-126963809D01*
X140962380Y-126582857D01*
X141010000Y-126487619D01*
X141057619Y-126440000D01*
X141152857Y-126392380D01*
X141295714Y-126392380D01*
X141390952Y-126440000D01*
X141438571Y-126487619D01*
X141486190Y-126582857D01*
X141486190Y-126963809D01*
X141438571Y-125963809D02*
X141438571Y-125630476D01*
X141962380Y-125487619D02*
X141962380Y-125963809D01*
X140962380Y-125963809D01*
X140962380Y-125487619D01*
X141914761Y-125106666D02*
X141962380Y-124963809D01*
X141962380Y-124725714D01*
X141914761Y-124630476D01*
X141867142Y-124582857D01*
X141771904Y-124535238D01*
X141676666Y-124535238D01*
X141581428Y-124582857D01*
X141533809Y-124630476D01*
X141486190Y-124725714D01*
X141438571Y-124916190D01*
X141390952Y-125011428D01*
X141343333Y-125059047D01*
X141248095Y-125106666D01*
X141152857Y-125106666D01*
X141057619Y-125059047D01*
X141010000Y-125011428D01*
X140962380Y-124916190D01*
X140962380Y-124678095D01*
X141010000Y-124535238D01*
X141438571Y-124106666D02*
X141438571Y-123773333D01*
X141962380Y-123630476D02*
X141962380Y-124106666D01*
X140962380Y-124106666D01*
X140962380Y-123630476D01*
X140962380Y-123344761D02*
X140962380Y-122773333D01*
X141962380Y-123059047D02*
X140962380Y-123059047D01*
%TO.C,U2*%
X157218095Y-120132380D02*
X157218095Y-120941904D01*
X157265714Y-121037142D01*
X157313333Y-121084761D01*
X157408571Y-121132380D01*
X157599047Y-121132380D01*
X157694285Y-121084761D01*
X157741904Y-121037142D01*
X157789523Y-120941904D01*
X157789523Y-120132380D01*
X158218095Y-120227619D02*
X158265714Y-120180000D01*
X158360952Y-120132380D01*
X158599047Y-120132380D01*
X158694285Y-120180000D01*
X158741904Y-120227619D01*
X158789523Y-120322857D01*
X158789523Y-120418095D01*
X158741904Y-120560952D01*
X158170476Y-121132380D01*
X158789523Y-121132380D01*
%TO.C,C5*%
X154863333Y-108507142D02*
X154815714Y-108554761D01*
X154672857Y-108602380D01*
X154577619Y-108602380D01*
X154434761Y-108554761D01*
X154339523Y-108459523D01*
X154291904Y-108364285D01*
X154244285Y-108173809D01*
X154244285Y-108030952D01*
X154291904Y-107840476D01*
X154339523Y-107745238D01*
X154434761Y-107650000D01*
X154577619Y-107602380D01*
X154672857Y-107602380D01*
X154815714Y-107650000D01*
X154863333Y-107697619D01*
X155768095Y-107602380D02*
X155291904Y-107602380D01*
X155244285Y-108078571D01*
X155291904Y-108030952D01*
X155387142Y-107983333D01*
X155625238Y-107983333D01*
X155720476Y-108030952D01*
X155768095Y-108078571D01*
X155815714Y-108173809D01*
X155815714Y-108411904D01*
X155768095Y-108507142D01*
X155720476Y-108554761D01*
X155625238Y-108602380D01*
X155387142Y-108602380D01*
X155291904Y-108554761D01*
X155244285Y-108507142D01*
%TO.C,C2*%
X162413333Y-108717142D02*
X162365714Y-108764761D01*
X162222857Y-108812380D01*
X162127619Y-108812380D01*
X161984761Y-108764761D01*
X161889523Y-108669523D01*
X161841904Y-108574285D01*
X161794285Y-108383809D01*
X161794285Y-108240952D01*
X161841904Y-108050476D01*
X161889523Y-107955238D01*
X161984761Y-107860000D01*
X162127619Y-107812380D01*
X162222857Y-107812380D01*
X162365714Y-107860000D01*
X162413333Y-107907619D01*
X162794285Y-107907619D02*
X162841904Y-107860000D01*
X162937142Y-107812380D01*
X163175238Y-107812380D01*
X163270476Y-107860000D01*
X163318095Y-107907619D01*
X163365714Y-108002857D01*
X163365714Y-108098095D01*
X163318095Y-108240952D01*
X162746666Y-108812380D01*
X163365714Y-108812380D01*
%TO.C,C1*%
X142223333Y-109147142D02*
X142175714Y-109194761D01*
X142032857Y-109242380D01*
X141937619Y-109242380D01*
X141794761Y-109194761D01*
X141699523Y-109099523D01*
X141651904Y-109004285D01*
X141604285Y-108813809D01*
X141604285Y-108670952D01*
X141651904Y-108480476D01*
X141699523Y-108385238D01*
X141794761Y-108290000D01*
X141937619Y-108242380D01*
X142032857Y-108242380D01*
X142175714Y-108290000D01*
X142223333Y-108337619D01*
X143175714Y-109242380D02*
X142604285Y-109242380D01*
X142890000Y-109242380D02*
X142890000Y-108242380D01*
X142794761Y-108385238D01*
X142699523Y-108480476D01*
X142604285Y-108528095D01*
%TO.C,R2*%
X161772380Y-74776666D02*
X161296190Y-75110000D01*
X161772380Y-75348095D02*
X160772380Y-75348095D01*
X160772380Y-74967142D01*
X160820000Y-74871904D01*
X160867619Y-74824285D01*
X160962857Y-74776666D01*
X161105714Y-74776666D01*
X161200952Y-74824285D01*
X161248571Y-74871904D01*
X161296190Y-74967142D01*
X161296190Y-75348095D01*
X160867619Y-74395714D02*
X160820000Y-74348095D01*
X160772380Y-74252857D01*
X160772380Y-74014761D01*
X160820000Y-73919523D01*
X160867619Y-73871904D01*
X160962857Y-73824285D01*
X161058095Y-73824285D01*
X161200952Y-73871904D01*
X161772380Y-74443333D01*
X161772380Y-73824285D01*
%TO.C,Q1*%
X158984761Y-103187619D02*
X158889523Y-103140000D01*
X158794285Y-103044761D01*
X158651428Y-102901904D01*
X158556190Y-102854285D01*
X158460952Y-102854285D01*
X158508571Y-103092380D02*
X158413333Y-103044761D01*
X158318095Y-102949523D01*
X158270476Y-102759047D01*
X158270476Y-102425714D01*
X158318095Y-102235238D01*
X158413333Y-102140000D01*
X158508571Y-102092380D01*
X158699047Y-102092380D01*
X158794285Y-102140000D01*
X158889523Y-102235238D01*
X158937142Y-102425714D01*
X158937142Y-102759047D01*
X158889523Y-102949523D01*
X158794285Y-103044761D01*
X158699047Y-103092380D01*
X158508571Y-103092380D01*
X159889523Y-103092380D02*
X159318095Y-103092380D01*
X159603809Y-103092380D02*
X159603809Y-102092380D01*
X159508571Y-102235238D01*
X159413333Y-102330476D01*
X159318095Y-102378095D01*
%TO.C,Q2*%
X154914761Y-103097619D02*
X154819523Y-103050000D01*
X154724285Y-102954761D01*
X154581428Y-102811904D01*
X154486190Y-102764285D01*
X154390952Y-102764285D01*
X154438571Y-103002380D02*
X154343333Y-102954761D01*
X154248095Y-102859523D01*
X154200476Y-102669047D01*
X154200476Y-102335714D01*
X154248095Y-102145238D01*
X154343333Y-102050000D01*
X154438571Y-102002380D01*
X154629047Y-102002380D01*
X154724285Y-102050000D01*
X154819523Y-102145238D01*
X154867142Y-102335714D01*
X154867142Y-102669047D01*
X154819523Y-102859523D01*
X154724285Y-102954761D01*
X154629047Y-103002380D01*
X154438571Y-103002380D01*
X155248095Y-102097619D02*
X155295714Y-102050000D01*
X155390952Y-102002380D01*
X155629047Y-102002380D01*
X155724285Y-102050000D01*
X155771904Y-102097619D01*
X155819523Y-102192857D01*
X155819523Y-102288095D01*
X155771904Y-102430952D01*
X155200476Y-103002380D01*
X155819523Y-103002380D01*
%TO.C,R5*%
X151842380Y-101666666D02*
X151366190Y-102000000D01*
X151842380Y-102238095D02*
X150842380Y-102238095D01*
X150842380Y-101857142D01*
X150890000Y-101761904D01*
X150937619Y-101714285D01*
X151032857Y-101666666D01*
X151175714Y-101666666D01*
X151270952Y-101714285D01*
X151318571Y-101761904D01*
X151366190Y-101857142D01*
X151366190Y-102238095D01*
X150842380Y-100761904D02*
X150842380Y-101238095D01*
X151318571Y-101285714D01*
X151270952Y-101238095D01*
X151223333Y-101142857D01*
X151223333Y-100904761D01*
X151270952Y-100809523D01*
X151318571Y-100761904D01*
X151413809Y-100714285D01*
X151651904Y-100714285D01*
X151747142Y-100761904D01*
X151794761Y-100809523D01*
X151842380Y-100904761D01*
X151842380Y-101142857D01*
X151794761Y-101238095D01*
X151747142Y-101285714D01*
%TO.C,R6*%
X164812380Y-105356666D02*
X164336190Y-105690000D01*
X164812380Y-105928095D02*
X163812380Y-105928095D01*
X163812380Y-105547142D01*
X163860000Y-105451904D01*
X163907619Y-105404285D01*
X164002857Y-105356666D01*
X164145714Y-105356666D01*
X164240952Y-105404285D01*
X164288571Y-105451904D01*
X164336190Y-105547142D01*
X164336190Y-105928095D01*
X163812380Y-104499523D02*
X163812380Y-104690000D01*
X163860000Y-104785238D01*
X163907619Y-104832857D01*
X164050476Y-104928095D01*
X164240952Y-104975714D01*
X164621904Y-104975714D01*
X164717142Y-104928095D01*
X164764761Y-104880476D01*
X164812380Y-104785238D01*
X164812380Y-104594761D01*
X164764761Y-104499523D01*
X164717142Y-104451904D01*
X164621904Y-104404285D01*
X164383809Y-104404285D01*
X164288571Y-104451904D01*
X164240952Y-104499523D01*
X164193333Y-104594761D01*
X164193333Y-104785238D01*
X164240952Y-104880476D01*
X164288571Y-104928095D01*
X164383809Y-104975714D01*
%TO.C,D1*%
X144952380Y-121522095D02*
X143952380Y-121522095D01*
X143952380Y-121284000D01*
X144000000Y-121141142D01*
X144095238Y-121045904D01*
X144190476Y-120998285D01*
X144380952Y-120950666D01*
X144523809Y-120950666D01*
X144714285Y-120998285D01*
X144809523Y-121045904D01*
X144904761Y-121141142D01*
X144952380Y-121284000D01*
X144952380Y-121522095D01*
X144952380Y-119998285D02*
X144952380Y-120569714D01*
X144952380Y-120284000D02*
X143952380Y-120284000D01*
X144095238Y-120379238D01*
X144190476Y-120474476D01*
X144238095Y-120569714D01*
%TO.C,R10*%
X149664380Y-99194857D02*
X149188190Y-99528190D01*
X149664380Y-99766285D02*
X148664380Y-99766285D01*
X148664380Y-99385333D01*
X148712000Y-99290095D01*
X148759619Y-99242476D01*
X148854857Y-99194857D01*
X148997714Y-99194857D01*
X149092952Y-99242476D01*
X149140571Y-99290095D01*
X149188190Y-99385333D01*
X149188190Y-99766285D01*
X149664380Y-98242476D02*
X149664380Y-98813904D01*
X149664380Y-98528190D02*
X148664380Y-98528190D01*
X148807238Y-98623428D01*
X148902476Y-98718666D01*
X148950095Y-98813904D01*
X148664380Y-97623428D02*
X148664380Y-97528190D01*
X148712000Y-97432952D01*
X148759619Y-97385333D01*
X148854857Y-97337714D01*
X149045333Y-97290095D01*
X149283428Y-97290095D01*
X149473904Y-97337714D01*
X149569142Y-97385333D01*
X149616761Y-97432952D01*
X149664380Y-97528190D01*
X149664380Y-97623428D01*
X149616761Y-97718666D01*
X149569142Y-97766285D01*
X149473904Y-97813904D01*
X149283428Y-97861523D01*
X149045333Y-97861523D01*
X148854857Y-97813904D01*
X148759619Y-97766285D01*
X148712000Y-97718666D01*
X148664380Y-97623428D01*
%TO.C,C4*%
X154853333Y-114897142D02*
X154805714Y-114944761D01*
X154662857Y-114992380D01*
X154567619Y-114992380D01*
X154424761Y-114944761D01*
X154329523Y-114849523D01*
X154281904Y-114754285D01*
X154234285Y-114563809D01*
X154234285Y-114420952D01*
X154281904Y-114230476D01*
X154329523Y-114135238D01*
X154424761Y-114040000D01*
X154567619Y-113992380D01*
X154662857Y-113992380D01*
X154805714Y-114040000D01*
X154853333Y-114087619D01*
X155710476Y-114325714D02*
X155710476Y-114992380D01*
X155472380Y-113944761D02*
X155234285Y-114659047D01*
X155853333Y-114659047D01*
%TO.C,R3*%
X161612380Y-82566666D02*
X161136190Y-82900000D01*
X161612380Y-83138095D02*
X160612380Y-83138095D01*
X160612380Y-82757142D01*
X160660000Y-82661904D01*
X160707619Y-82614285D01*
X160802857Y-82566666D01*
X160945714Y-82566666D01*
X161040952Y-82614285D01*
X161088571Y-82661904D01*
X161136190Y-82757142D01*
X161136190Y-83138095D01*
X160612380Y-82233333D02*
X160612380Y-81614285D01*
X160993333Y-81947619D01*
X160993333Y-81804761D01*
X161040952Y-81709523D01*
X161088571Y-81661904D01*
X161183809Y-81614285D01*
X161421904Y-81614285D01*
X161517142Y-81661904D01*
X161564761Y-81709523D01*
X161612380Y-81804761D01*
X161612380Y-82090476D01*
X161564761Y-82185714D01*
X161517142Y-82233333D01*
%TO.C,R8*%
X161594380Y-89006666D02*
X161118190Y-89340000D01*
X161594380Y-89578095D02*
X160594380Y-89578095D01*
X160594380Y-89197142D01*
X160642000Y-89101904D01*
X160689619Y-89054285D01*
X160784857Y-89006666D01*
X160927714Y-89006666D01*
X161022952Y-89054285D01*
X161070571Y-89101904D01*
X161118190Y-89197142D01*
X161118190Y-89578095D01*
X161022952Y-88435238D02*
X160975333Y-88530476D01*
X160927714Y-88578095D01*
X160832476Y-88625714D01*
X160784857Y-88625714D01*
X160689619Y-88578095D01*
X160642000Y-88530476D01*
X160594380Y-88435238D01*
X160594380Y-88244761D01*
X160642000Y-88149523D01*
X160689619Y-88101904D01*
X160784857Y-88054285D01*
X160832476Y-88054285D01*
X160927714Y-88101904D01*
X160975333Y-88149523D01*
X161022952Y-88244761D01*
X161022952Y-88435238D01*
X161070571Y-88530476D01*
X161118190Y-88578095D01*
X161213428Y-88625714D01*
X161403904Y-88625714D01*
X161499142Y-88578095D01*
X161546761Y-88530476D01*
X161594380Y-88435238D01*
X161594380Y-88244761D01*
X161546761Y-88149523D01*
X161499142Y-88101904D01*
X161403904Y-88054285D01*
X161213428Y-88054285D01*
X161118190Y-88101904D01*
X161070571Y-88149523D01*
X161022952Y-88244761D01*
%TO.C,C6*%
X143337142Y-118596666D02*
X143384761Y-118644285D01*
X143432380Y-118787142D01*
X143432380Y-118882380D01*
X143384761Y-119025238D01*
X143289523Y-119120476D01*
X143194285Y-119168095D01*
X143003809Y-119215714D01*
X142860952Y-119215714D01*
X142670476Y-119168095D01*
X142575238Y-119120476D01*
X142480000Y-119025238D01*
X142432380Y-118882380D01*
X142432380Y-118787142D01*
X142480000Y-118644285D01*
X142527619Y-118596666D01*
X142432380Y-117739523D02*
X142432380Y-117930000D01*
X142480000Y-118025238D01*
X142527619Y-118072857D01*
X142670476Y-118168095D01*
X142860952Y-118215714D01*
X143241904Y-118215714D01*
X143337142Y-118168095D01*
X143384761Y-118120476D01*
X143432380Y-118025238D01*
X143432380Y-117834761D01*
X143384761Y-117739523D01*
X143337142Y-117691904D01*
X143241904Y-117644285D01*
X143003809Y-117644285D01*
X142908571Y-117691904D01*
X142860952Y-117739523D01*
X142813333Y-117834761D01*
X142813333Y-118025238D01*
X142860952Y-118120476D01*
X142908571Y-118168095D01*
X143003809Y-118215714D01*
%TO.C,U4*%
X150058095Y-86762380D02*
X150058095Y-87571904D01*
X150105714Y-87667142D01*
X150153333Y-87714761D01*
X150248571Y-87762380D01*
X150439047Y-87762380D01*
X150534285Y-87714761D01*
X150581904Y-87667142D01*
X150629523Y-87571904D01*
X150629523Y-86762380D01*
X151534285Y-87095714D02*
X151534285Y-87762380D01*
X151296190Y-86714761D02*
X151058095Y-87429047D01*
X151677142Y-87429047D01*
%TO.C,D4*%
X151192380Y-120658095D02*
X150192380Y-120658095D01*
X150192380Y-120420000D01*
X150240000Y-120277142D01*
X150335238Y-120181904D01*
X150430476Y-120134285D01*
X150620952Y-120086666D01*
X150763809Y-120086666D01*
X150954285Y-120134285D01*
X151049523Y-120181904D01*
X151144761Y-120277142D01*
X151192380Y-120420000D01*
X151192380Y-120658095D01*
X150525714Y-119229523D02*
X151192380Y-119229523D01*
X150144761Y-119467619D02*
X150859047Y-119705714D01*
X150859047Y-119086666D01*
%TO.C,C7*%
X143327142Y-112926666D02*
X143374761Y-112974285D01*
X143422380Y-113117142D01*
X143422380Y-113212380D01*
X143374761Y-113355238D01*
X143279523Y-113450476D01*
X143184285Y-113498095D01*
X142993809Y-113545714D01*
X142850952Y-113545714D01*
X142660476Y-113498095D01*
X142565238Y-113450476D01*
X142470000Y-113355238D01*
X142422380Y-113212380D01*
X142422380Y-113117142D01*
X142470000Y-112974285D01*
X142517619Y-112926666D01*
X142422380Y-112593333D02*
X142422380Y-111926666D01*
X143422380Y-112355238D01*
%TO.C,R1*%
X139738880Y-105896666D02*
X139262690Y-106230000D01*
X139738880Y-106468095D02*
X138738880Y-106468095D01*
X138738880Y-106087142D01*
X138786500Y-105991904D01*
X138834119Y-105944285D01*
X138929357Y-105896666D01*
X139072214Y-105896666D01*
X139167452Y-105944285D01*
X139215071Y-105991904D01*
X139262690Y-106087142D01*
X139262690Y-106468095D01*
X139738880Y-104944285D02*
X139738880Y-105515714D01*
X139738880Y-105230000D02*
X138738880Y-105230000D01*
X138881738Y-105325238D01*
X138976976Y-105420476D01*
X139024595Y-105515714D01*
%TO.C,D6*%
X152352380Y-98782095D02*
X151352380Y-98782095D01*
X151352380Y-98544000D01*
X151400000Y-98401142D01*
X151495238Y-98305904D01*
X151590476Y-98258285D01*
X151780952Y-98210666D01*
X151923809Y-98210666D01*
X152114285Y-98258285D01*
X152209523Y-98305904D01*
X152304761Y-98401142D01*
X152352380Y-98544000D01*
X152352380Y-98782095D01*
X151352380Y-97353523D02*
X151352380Y-97544000D01*
X151400000Y-97639238D01*
X151447619Y-97686857D01*
X151590476Y-97782095D01*
X151780952Y-97829714D01*
X152161904Y-97829714D01*
X152257142Y-97782095D01*
X152304761Y-97734476D01*
X152352380Y-97639238D01*
X152352380Y-97448761D01*
X152304761Y-97353523D01*
X152257142Y-97305904D01*
X152161904Y-97258285D01*
X151923809Y-97258285D01*
X151828571Y-97305904D01*
X151780952Y-97353523D01*
X151733333Y-97448761D01*
X151733333Y-97639238D01*
X151780952Y-97734476D01*
X151828571Y-97782095D01*
X151923809Y-97829714D01*
%TO.C,R9*%
X140782380Y-87476666D02*
X140306190Y-87810000D01*
X140782380Y-88048095D02*
X139782380Y-88048095D01*
X139782380Y-87667142D01*
X139830000Y-87571904D01*
X139877619Y-87524285D01*
X139972857Y-87476666D01*
X140115714Y-87476666D01*
X140210952Y-87524285D01*
X140258571Y-87571904D01*
X140306190Y-87667142D01*
X140306190Y-88048095D01*
X140782380Y-87000476D02*
X140782380Y-86810000D01*
X140734761Y-86714761D01*
X140687142Y-86667142D01*
X140544285Y-86571904D01*
X140353809Y-86524285D01*
X139972857Y-86524285D01*
X139877619Y-86571904D01*
X139830000Y-86619523D01*
X139782380Y-86714761D01*
X139782380Y-86905238D01*
X139830000Y-87000476D01*
X139877619Y-87048095D01*
X139972857Y-87095714D01*
X140210952Y-87095714D01*
X140306190Y-87048095D01*
X140353809Y-87000476D01*
X140401428Y-86905238D01*
X140401428Y-86714761D01*
X140353809Y-86619523D01*
X140306190Y-86571904D01*
X140210952Y-86524285D01*
%TO.C,D2*%
X138628380Y-118802095D02*
X137628380Y-118802095D01*
X137628380Y-118564000D01*
X137676000Y-118421142D01*
X137771238Y-118325904D01*
X137866476Y-118278285D01*
X138056952Y-118230666D01*
X138199809Y-118230666D01*
X138390285Y-118278285D01*
X138485523Y-118325904D01*
X138580761Y-118421142D01*
X138628380Y-118564000D01*
X138628380Y-118802095D01*
X137723619Y-117849714D02*
X137676000Y-117802095D01*
X137628380Y-117706857D01*
X137628380Y-117468761D01*
X137676000Y-117373523D01*
X137723619Y-117325904D01*
X137818857Y-117278285D01*
X137914095Y-117278285D01*
X138056952Y-117325904D01*
X138628380Y-117897333D01*
X138628380Y-117278285D01*
%TO.C,D3*%
X155002380Y-120598095D02*
X154002380Y-120598095D01*
X154002380Y-120360000D01*
X154050000Y-120217142D01*
X154145238Y-120121904D01*
X154240476Y-120074285D01*
X154430952Y-120026666D01*
X154573809Y-120026666D01*
X154764285Y-120074285D01*
X154859523Y-120121904D01*
X154954761Y-120217142D01*
X155002380Y-120360000D01*
X155002380Y-120598095D01*
X154002380Y-119693333D02*
X154002380Y-119074285D01*
X154383333Y-119407619D01*
X154383333Y-119264761D01*
X154430952Y-119169523D01*
X154478571Y-119121904D01*
X154573809Y-119074285D01*
X154811904Y-119074285D01*
X154907142Y-119121904D01*
X154954761Y-119169523D01*
X155002380Y-119264761D01*
X155002380Y-119550476D01*
X154954761Y-119645714D01*
X154907142Y-119693333D01*
%TO.C,X1*%
X140348880Y-97409523D02*
X141348880Y-96742857D01*
X140348880Y-96742857D02*
X141348880Y-97409523D01*
X141348880Y-95838095D02*
X141348880Y-96409523D01*
X141348880Y-96123809D02*
X140348880Y-96123809D01*
X140491738Y-96219047D01*
X140586976Y-96314285D01*
X140634595Y-96409523D01*
%TO.C,C3*%
X162303333Y-114847142D02*
X162255714Y-114894761D01*
X162112857Y-114942380D01*
X162017619Y-114942380D01*
X161874761Y-114894761D01*
X161779523Y-114799523D01*
X161731904Y-114704285D01*
X161684285Y-114513809D01*
X161684285Y-114370952D01*
X161731904Y-114180476D01*
X161779523Y-114085238D01*
X161874761Y-113990000D01*
X162017619Y-113942380D01*
X162112857Y-113942380D01*
X162255714Y-113990000D01*
X162303333Y-114037619D01*
X162636666Y-113942380D02*
X163255714Y-113942380D01*
X162922380Y-114323333D01*
X163065238Y-114323333D01*
X163160476Y-114370952D01*
X163208095Y-114418571D01*
X163255714Y-114513809D01*
X163255714Y-114751904D01*
X163208095Y-114847142D01*
X163160476Y-114894761D01*
X163065238Y-114942380D01*
X162779523Y-114942380D01*
X162684285Y-114894761D01*
X162636666Y-114847142D01*
%TO.C,R7*%
X154900380Y-98210666D02*
X154424190Y-98544000D01*
X154900380Y-98782095D02*
X153900380Y-98782095D01*
X153900380Y-98401142D01*
X153948000Y-98305904D01*
X153995619Y-98258285D01*
X154090857Y-98210666D01*
X154233714Y-98210666D01*
X154328952Y-98258285D01*
X154376571Y-98305904D01*
X154424190Y-98401142D01*
X154424190Y-98782095D01*
X153900380Y-97877333D02*
X153900380Y-97210666D01*
X154900380Y-97639238D01*
%TO.C,R11*%
X161772380Y-118082857D02*
X161296190Y-118416190D01*
X161772380Y-118654285D02*
X160772380Y-118654285D01*
X160772380Y-118273333D01*
X160820000Y-118178095D01*
X160867619Y-118130476D01*
X160962857Y-118082857D01*
X161105714Y-118082857D01*
X161200952Y-118130476D01*
X161248571Y-118178095D01*
X161296190Y-118273333D01*
X161296190Y-118654285D01*
X161772380Y-117130476D02*
X161772380Y-117701904D01*
X161772380Y-117416190D02*
X160772380Y-117416190D01*
X160915238Y-117511428D01*
X161010476Y-117606666D01*
X161058095Y-117701904D01*
X161772380Y-116178095D02*
X161772380Y-116749523D01*
X161772380Y-116463809D02*
X160772380Y-116463809D01*
X160915238Y-116559047D01*
X161010476Y-116654285D01*
X161058095Y-116749523D01*
%TO.C,C9*%
X140727142Y-81466666D02*
X140774761Y-81514285D01*
X140822380Y-81657142D01*
X140822380Y-81752380D01*
X140774761Y-81895238D01*
X140679523Y-81990476D01*
X140584285Y-82038095D01*
X140393809Y-82085714D01*
X140250952Y-82085714D01*
X140060476Y-82038095D01*
X139965238Y-81990476D01*
X139870000Y-81895238D01*
X139822380Y-81752380D01*
X139822380Y-81657142D01*
X139870000Y-81514285D01*
X139917619Y-81466666D01*
X140822380Y-80990476D02*
X140822380Y-80800000D01*
X140774761Y-80704761D01*
X140727142Y-80657142D01*
X140584285Y-80561904D01*
X140393809Y-80514285D01*
X140012857Y-80514285D01*
X139917619Y-80561904D01*
X139870000Y-80609523D01*
X139822380Y-80704761D01*
X139822380Y-80895238D01*
X139870000Y-80990476D01*
X139917619Y-81038095D01*
X140012857Y-81085714D01*
X140250952Y-81085714D01*
X140346190Y-81038095D01*
X140393809Y-80990476D01*
X140441428Y-80895238D01*
X140441428Y-80704761D01*
X140393809Y-80609523D01*
X140346190Y-80561904D01*
X140250952Y-80514285D01*
%TO.C,D5*%
X138628380Y-113514095D02*
X137628380Y-113514095D01*
X137628380Y-113276000D01*
X137676000Y-113133142D01*
X137771238Y-113037904D01*
X137866476Y-112990285D01*
X138056952Y-112942666D01*
X138199809Y-112942666D01*
X138390285Y-112990285D01*
X138485523Y-113037904D01*
X138580761Y-113133142D01*
X138628380Y-113276000D01*
X138628380Y-113514095D01*
X137628380Y-112037904D02*
X137628380Y-112514095D01*
X138104571Y-112561714D01*
X138056952Y-112514095D01*
X138009333Y-112418857D01*
X138009333Y-112180761D01*
X138056952Y-112085523D01*
X138104571Y-112037904D01*
X138199809Y-111990285D01*
X138437904Y-111990285D01*
X138533142Y-112037904D01*
X138580761Y-112085523D01*
X138628380Y-112180761D01*
X138628380Y-112418857D01*
X138580761Y-112514095D01*
X138533142Y-112561714D01*
%TO.C,C8*%
X140727142Y-74806666D02*
X140774761Y-74854285D01*
X140822380Y-74997142D01*
X140822380Y-75092380D01*
X140774761Y-75235238D01*
X140679523Y-75330476D01*
X140584285Y-75378095D01*
X140393809Y-75425714D01*
X140250952Y-75425714D01*
X140060476Y-75378095D01*
X139965238Y-75330476D01*
X139870000Y-75235238D01*
X139822380Y-75092380D01*
X139822380Y-74997142D01*
X139870000Y-74854285D01*
X139917619Y-74806666D01*
X140250952Y-74235238D02*
X140203333Y-74330476D01*
X140155714Y-74378095D01*
X140060476Y-74425714D01*
X140012857Y-74425714D01*
X139917619Y-74378095D01*
X139870000Y-74330476D01*
X139822380Y-74235238D01*
X139822380Y-74044761D01*
X139870000Y-73949523D01*
X139917619Y-73901904D01*
X140012857Y-73854285D01*
X140060476Y-73854285D01*
X140155714Y-73901904D01*
X140203333Y-73949523D01*
X140250952Y-74044761D01*
X140250952Y-74235238D01*
X140298571Y-74330476D01*
X140346190Y-74378095D01*
X140441428Y-74425714D01*
X140631904Y-74425714D01*
X140727142Y-74378095D01*
X140774761Y-74330476D01*
X140822380Y-74235238D01*
X140822380Y-74044761D01*
X140774761Y-73949523D01*
X140727142Y-73901904D01*
X140631904Y-73854285D01*
X140441428Y-73854285D01*
X140346190Y-73901904D01*
X140298571Y-73949523D01*
X140250952Y-74044761D01*
%TO.C,U1*%
X144914595Y-103882380D02*
X144914595Y-104691904D01*
X144962214Y-104787142D01*
X145009833Y-104834761D01*
X145105071Y-104882380D01*
X145295547Y-104882380D01*
X145390785Y-104834761D01*
X145438404Y-104787142D01*
X145486023Y-104691904D01*
X145486023Y-103882380D01*
X146486023Y-104882380D02*
X145914595Y-104882380D01*
X146200309Y-104882380D02*
X146200309Y-103882380D01*
X146105071Y-104025238D01*
X146009833Y-104120476D01*
X145914595Y-104168095D01*
%TO.C,U3*%
X147336380Y-115061904D02*
X148145904Y-115061904D01*
X148241142Y-115014285D01*
X148288761Y-114966666D01*
X148336380Y-114871428D01*
X148336380Y-114680952D01*
X148288761Y-114585714D01*
X148241142Y-114538095D01*
X148145904Y-114490476D01*
X147336380Y-114490476D01*
X147336380Y-114109523D02*
X147336380Y-113490476D01*
X147717333Y-113823809D01*
X147717333Y-113680952D01*
X147764952Y-113585714D01*
X147812571Y-113538095D01*
X147907809Y-113490476D01*
X148145904Y-113490476D01*
X148241142Y-113538095D01*
X148288761Y-113585714D01*
X148336380Y-113680952D01*
X148336380Y-113966666D01*
X148288761Y-114061904D01*
X148241142Y-114109523D01*
%TO.C,G\u002A\u002A\u002A*%
G36*
X163480727Y-94344582D02*
G01*
X163465983Y-94300272D01*
X163449794Y-94256636D01*
X163433376Y-94216414D01*
X163417942Y-94182347D01*
X163404709Y-94157173D01*
X163394893Y-94143633D01*
X163391002Y-94142313D01*
X163386612Y-94141979D01*
X163388470Y-94137910D01*
X163387328Y-94124766D01*
X163375760Y-94101256D01*
X163355155Y-94069186D01*
X163326897Y-94030365D01*
X163292375Y-93986599D01*
X163252974Y-93939696D01*
X163210082Y-93891463D01*
X163165085Y-93843708D01*
X163154258Y-93832651D01*
X163116871Y-93795528D01*
X163086833Y-93768017D01*
X163060186Y-93747085D01*
X163032970Y-93729700D01*
X163001226Y-93712828D01*
X162991722Y-93708141D01*
X162916023Y-93675533D01*
X162843750Y-93654402D01*
X162768366Y-93643259D01*
X162695100Y-93640529D01*
X162630580Y-93642342D01*
X162573543Y-93648233D01*
X162517194Y-93659321D01*
X162454736Y-93676723D01*
X162432633Y-93683716D01*
X162392468Y-93697767D01*
X162352139Y-93713713D01*
X162314560Y-93730170D01*
X162282646Y-93745755D01*
X162259312Y-93759084D01*
X162247471Y-93768772D01*
X162246834Y-93771930D01*
X162245146Y-93776298D01*
X162240282Y-93775160D01*
X162228389Y-93777886D01*
X162205724Y-93789255D01*
X162174943Y-93807562D01*
X162138705Y-93831104D01*
X162099666Y-93858176D01*
X162060485Y-93887073D01*
X162036020Y-93906171D01*
X161987392Y-93948073D01*
X161938192Y-93995755D01*
X161890789Y-94046446D01*
X161847547Y-94097379D01*
X161810833Y-94145782D01*
X161783013Y-94188888D01*
X161767855Y-94220010D01*
X161730305Y-94342515D01*
X161709163Y-94467823D01*
X161704294Y-94596941D01*
X161708388Y-94668648D01*
X161720979Y-94773514D01*
X161739398Y-94864323D01*
X161764659Y-94943305D01*
X161797777Y-95012691D01*
X161839768Y-95074715D01*
X161891646Y-95131606D01*
X161937333Y-95171987D01*
X161950308Y-95184509D01*
X161949907Y-95189390D01*
X161937677Y-95187022D01*
X161915162Y-95177797D01*
X161883907Y-95162106D01*
X161871365Y-95155257D01*
X161820922Y-95122056D01*
X161765694Y-95076881D01*
X161708691Y-95022842D01*
X161652923Y-94963047D01*
X161601399Y-94900605D01*
X161557131Y-94838626D01*
X161542964Y-94816053D01*
X161516510Y-94769064D01*
X161490109Y-94716847D01*
X161465064Y-94662550D01*
X161442675Y-94609323D01*
X161424244Y-94560315D01*
X161411071Y-94518674D01*
X161404458Y-94487551D01*
X161403933Y-94479562D01*
X161400699Y-94470420D01*
X161397583Y-94470694D01*
X161393167Y-94465914D01*
X161390173Y-94449127D01*
X161389812Y-94443587D01*
X161388814Y-94423291D01*
X161387121Y-94390434D01*
X161384964Y-94349418D01*
X161382573Y-94304646D01*
X161382372Y-94300917D01*
X161381177Y-94194796D01*
X161390312Y-94098322D01*
X161410674Y-94007035D01*
X161443156Y-93916474D01*
X161471957Y-93854359D01*
X161523534Y-93763215D01*
X161583076Y-93681506D01*
X161648924Y-93609120D01*
X161739065Y-93530397D01*
X161839562Y-93464345D01*
X161948690Y-93411729D01*
X162064723Y-93373315D01*
X162185939Y-93349867D01*
X162246367Y-93344094D01*
X162261424Y-93342694D01*
X162264277Y-93340703D01*
X162253555Y-93337474D01*
X162227888Y-93332360D01*
X162217407Y-93330424D01*
X162168722Y-93323782D01*
X162124995Y-93323728D01*
X162080749Y-93330944D01*
X162030504Y-93346115D01*
X161999746Y-93357544D01*
X161867428Y-93414460D01*
X161747998Y-93478034D01*
X161638015Y-93550440D01*
X161534033Y-93633851D01*
X161473426Y-93689761D01*
X161370779Y-93799653D01*
X161282207Y-93916841D01*
X161208285Y-94040280D01*
X161149585Y-94168923D01*
X161106683Y-94301724D01*
X161086710Y-94394541D01*
X161075386Y-94508921D01*
X161080793Y-94622040D01*
X161102746Y-94733362D01*
X161141057Y-94842353D01*
X161195542Y-94948477D01*
X161266014Y-95051200D01*
X161348337Y-95145914D01*
X161398484Y-95193256D01*
X161460912Y-95244836D01*
X161532283Y-95298323D01*
X161609264Y-95351383D01*
X161688517Y-95401685D01*
X161766707Y-95446896D01*
X161815260Y-95472388D01*
X161854928Y-95490420D01*
X161905029Y-95510359D01*
X161962662Y-95531313D01*
X162024923Y-95552391D01*
X162088908Y-95572702D01*
X162151717Y-95591356D01*
X162210445Y-95607460D01*
X162262190Y-95620124D01*
X162304048Y-95628458D01*
X162333118Y-95631569D01*
X162333828Y-95631572D01*
X162361259Y-95633006D01*
X162373070Y-95636779D01*
X162370279Y-95642100D01*
X162353910Y-95648175D01*
X162324984Y-95654212D01*
X162300138Y-95657715D01*
X162261309Y-95663339D01*
X162214908Y-95671459D01*
X162169803Y-95680501D01*
X162161700Y-95682286D01*
X162048503Y-95706752D01*
X161949392Y-95726058D01*
X161862398Y-95740458D01*
X161785558Y-95750207D01*
X161716904Y-95755560D01*
X161654471Y-95756770D01*
X161602900Y-95754594D01*
X161561368Y-95751726D01*
X161522916Y-95749301D01*
X161492633Y-95747627D01*
X161478825Y-95747063D01*
X161459695Y-95745256D01*
X161451132Y-95741794D01*
X161451234Y-95740814D01*
X161446318Y-95735802D01*
X161429865Y-95730730D01*
X161427143Y-95730185D01*
X161395915Y-95722595D01*
X161352570Y-95709740D01*
X161300628Y-95692871D01*
X161243609Y-95673243D01*
X161185031Y-95652109D01*
X161128415Y-95630722D01*
X161077280Y-95610337D01*
X161035146Y-95592206D01*
X161020729Y-95585443D01*
X160937029Y-95541024D01*
X160852709Y-95489451D01*
X160771595Y-95433427D01*
X160697509Y-95375661D01*
X160634275Y-95318857D01*
X160612300Y-95296395D01*
X160583848Y-95265365D01*
X160553224Y-95230991D01*
X160522504Y-95195722D01*
X160493764Y-95162008D01*
X160469080Y-95132298D01*
X160450527Y-95109042D01*
X160440181Y-95094689D01*
X160438733Y-95091577D01*
X160434322Y-95082748D01*
X160422742Y-95063974D01*
X160406474Y-95039269D01*
X160406008Y-95038581D01*
X160347848Y-94940839D01*
X160295772Y-94829330D01*
X160250637Y-94706449D01*
X160213297Y-94574586D01*
X160184606Y-94436136D01*
X160179387Y-94404047D01*
X160171658Y-94338879D01*
X160166382Y-94262369D01*
X160163563Y-94179008D01*
X160163202Y-94093290D01*
X160165300Y-94009708D01*
X160169860Y-93932755D01*
X160176883Y-93866923D01*
X160179164Y-93851873D01*
X160204531Y-93724024D01*
X160238142Y-93597577D01*
X160278807Y-93475888D01*
X160325333Y-93362313D01*
X160376531Y-93260210D01*
X160407609Y-93208020D01*
X160422847Y-93182035D01*
X160432939Y-93160754D01*
X160435682Y-93149070D01*
X160435272Y-93142947D01*
X160436587Y-93144647D01*
X160442814Y-93141389D01*
X160456170Y-93127073D01*
X160474066Y-93104550D01*
X160478981Y-93097924D01*
X160507858Y-93061839D01*
X163512133Y-93061839D01*
X163516367Y-93066087D01*
X163520600Y-93061839D01*
X163516367Y-93057592D01*
X163512133Y-93061839D01*
X160507858Y-93061839D01*
X160587114Y-92962801D01*
X160703593Y-92841925D01*
X160829556Y-92734390D01*
X160966141Y-92639289D01*
X161114488Y-92555718D01*
X161226123Y-92503514D01*
X161317876Y-92467768D01*
X161422646Y-92433754D01*
X161536534Y-92402418D01*
X161655642Y-92374705D01*
X161776072Y-92351560D01*
X161893925Y-92333929D01*
X161953047Y-92327239D01*
X162008499Y-92323160D01*
X162076051Y-92320425D01*
X162150925Y-92319033D01*
X162228340Y-92318987D01*
X162303516Y-92320288D01*
X162371675Y-92322938D01*
X162428037Y-92326939D01*
X162429620Y-92327092D01*
X162641398Y-92356244D01*
X162849865Y-92401778D01*
X163053991Y-92463236D01*
X163252745Y-92540166D01*
X163445095Y-92632110D01*
X163630010Y-92738616D01*
X163806460Y-92859227D01*
X163973414Y-92993489D01*
X164006798Y-93023041D01*
X164044125Y-93057863D01*
X164085775Y-93098762D01*
X164129094Y-93142927D01*
X164171431Y-93187548D01*
X164210130Y-93229814D01*
X164242539Y-93266916D01*
X164266004Y-93296043D01*
X164270773Y-93302619D01*
X164283282Y-93314439D01*
X164292954Y-93315518D01*
X164298103Y-93315071D01*
X164295885Y-93319987D01*
X164297232Y-93332312D01*
X164308554Y-93352627D01*
X164318439Y-93365898D01*
X164364396Y-93428842D01*
X164412779Y-93505993D01*
X164462484Y-93594940D01*
X164512410Y-93693272D01*
X164561454Y-93798578D01*
X164608514Y-93908448D01*
X164652488Y-94020470D01*
X164692274Y-94132235D01*
X164726769Y-94241331D01*
X164740018Y-94287979D01*
X164782459Y-94458843D01*
X164813882Y-94622173D01*
X164834928Y-94782760D01*
X164846235Y-94945394D01*
X164848591Y-95100635D01*
X164848019Y-95151750D01*
X164847216Y-95198575D01*
X164846261Y-95237801D01*
X164845231Y-95266118D01*
X164844368Y-95279030D01*
X164842121Y-95298718D01*
X164838602Y-95329926D01*
X164834416Y-95367290D01*
X164832415Y-95385217D01*
X164825510Y-95440259D01*
X164816577Y-95500934D01*
X164806103Y-95564811D01*
X164794579Y-95629456D01*
X164782491Y-95692437D01*
X164770327Y-95751320D01*
X164758577Y-95803674D01*
X164747727Y-95847066D01*
X164738267Y-95879063D01*
X164730683Y-95897231D01*
X164729287Y-95899164D01*
X164727081Y-95894143D01*
X164725976Y-95874188D01*
X164725981Y-95841320D01*
X164727104Y-95797559D01*
X164728677Y-95758997D01*
X164731732Y-95678268D01*
X164733856Y-95590132D01*
X164735079Y-95497234D01*
X164735428Y-95402220D01*
X164734933Y-95307733D01*
X164733622Y-95216420D01*
X164731522Y-95130925D01*
X164728663Y-95053894D01*
X164725072Y-94987971D01*
X164720778Y-94935801D01*
X164719749Y-94926488D01*
X164701339Y-94790030D01*
X164679691Y-94668124D01*
X164654324Y-94558560D01*
X164624759Y-94459126D01*
X164608261Y-94412542D01*
X164596713Y-94381301D01*
X164587160Y-94354753D01*
X164581530Y-94338263D01*
X164581293Y-94337493D01*
X164575369Y-94328053D01*
X164570703Y-94331456D01*
X164566703Y-94331082D01*
X164564840Y-94317377D01*
X164564822Y-94315438D01*
X164560871Y-94297914D01*
X164549822Y-94268557D01*
X164532886Y-94229670D01*
X164511268Y-94183556D01*
X164486180Y-94132518D01*
X164458828Y-94078859D01*
X164430422Y-94024882D01*
X164402170Y-93972889D01*
X164375280Y-93925184D01*
X164350961Y-93884070D01*
X164330422Y-93851848D01*
X164314870Y-93830823D01*
X164306697Y-93823556D01*
X164299702Y-93813829D01*
X164299533Y-93811853D01*
X164294422Y-93800575D01*
X164280027Y-93778084D01*
X164257759Y-93746338D01*
X164229028Y-93707297D01*
X164195242Y-93662921D01*
X164160268Y-93618261D01*
X164130182Y-93582636D01*
X164090176Y-93538601D01*
X164043054Y-93488955D01*
X163991618Y-93436497D01*
X163938674Y-93384028D01*
X163887023Y-93334348D01*
X163839471Y-93290255D01*
X163798821Y-93254551D01*
X163783067Y-93241598D01*
X163745037Y-93212021D01*
X163703784Y-93181183D01*
X163662128Y-93151057D01*
X163622885Y-93123619D01*
X163588875Y-93100842D01*
X163562916Y-93084700D01*
X163548779Y-93077483D01*
X163549542Y-93081455D01*
X163560714Y-93095786D01*
X163580790Y-93118763D01*
X163608264Y-93148672D01*
X163641630Y-93183799D01*
X163647671Y-93190053D01*
X163769241Y-93322424D01*
X163876783Y-93454501D01*
X163972781Y-93589763D01*
X164059716Y-93731690D01*
X164134110Y-93871709D01*
X164155470Y-93913590D01*
X164177381Y-93954742D01*
X164197096Y-93990104D01*
X164210426Y-94012380D01*
X164285227Y-94140495D01*
X164355071Y-94281610D01*
X164418411Y-94432086D01*
X164473697Y-94588278D01*
X164514270Y-94726856D01*
X164556093Y-94909582D01*
X164583209Y-95085520D01*
X164595736Y-95256094D01*
X164593792Y-95422726D01*
X164582472Y-95549528D01*
X164563963Y-95673095D01*
X164538400Y-95799299D01*
X164505334Y-95929408D01*
X164464315Y-96064688D01*
X164414895Y-96206406D01*
X164356623Y-96355831D01*
X164289052Y-96514229D01*
X164211732Y-96682868D01*
X164124213Y-96863015D01*
X164099122Y-96913106D01*
X164071918Y-96967791D01*
X164047760Y-97017703D01*
X164027581Y-97060798D01*
X164012316Y-97095034D01*
X164002901Y-97118370D01*
X164000269Y-97128763D01*
X164000339Y-97128917D01*
X164000792Y-97134130D01*
X163997852Y-97132870D01*
X163991438Y-97138290D01*
X163978840Y-97156449D01*
X163961544Y-97184940D01*
X163941038Y-97221355D01*
X163926694Y-97248127D01*
X163900188Y-97298471D01*
X163868839Y-97357902D01*
X163835768Y-97420511D01*
X163804094Y-97480391D01*
X163789085Y-97508726D01*
X163758172Y-97567809D01*
X163723061Y-97636191D01*
X163685193Y-97710961D01*
X163646010Y-97789206D01*
X163606953Y-97868013D01*
X163569461Y-97944470D01*
X163534977Y-98015663D01*
X163504940Y-98078681D01*
X163480792Y-98130610D01*
X163473791Y-98146087D01*
X163407492Y-98302643D01*
X163349466Y-98457180D01*
X163300384Y-98607511D01*
X163260916Y-98751447D01*
X163231733Y-98886800D01*
X163216474Y-98985557D01*
X163214274Y-99009617D01*
X163214157Y-99033662D01*
X163216602Y-99060147D01*
X163222083Y-99091525D01*
X163231080Y-99130253D01*
X163244067Y-99178783D01*
X163261523Y-99239571D01*
X163274110Y-99282176D01*
X163277808Y-99301860D01*
X163275986Y-99313439D01*
X163275385Y-99313950D01*
X163270018Y-99308026D01*
X163259976Y-99288524D01*
X163246231Y-99257885D01*
X163229752Y-99218551D01*
X163211513Y-99172960D01*
X163192484Y-99123554D01*
X163173636Y-99072773D01*
X163155941Y-99023057D01*
X163140370Y-98976846D01*
X163136835Y-98965853D01*
X163105559Y-98859233D01*
X163075649Y-98741772D01*
X163048373Y-98619349D01*
X163024998Y-98497843D01*
X163006793Y-98383134D01*
X163000353Y-98332977D01*
X162978500Y-98076536D01*
X162973128Y-97820810D01*
X162984272Y-97564730D01*
X163011971Y-97307224D01*
X163042184Y-97120337D01*
X163049512Y-97077574D01*
X163054961Y-97039948D01*
X163058083Y-97011051D01*
X163058427Y-96994476D01*
X163058110Y-96992913D01*
X163056456Y-96984063D01*
X163060927Y-96988552D01*
X163066895Y-96987760D01*
X163073705Y-96970000D01*
X163079256Y-96946077D01*
X163087671Y-96908871D01*
X163100096Y-96859549D01*
X163115410Y-96802186D01*
X163132493Y-96740857D01*
X163150225Y-96679638D01*
X163167485Y-96622603D01*
X163173250Y-96604248D01*
X163235718Y-96423130D01*
X163309201Y-96238918D01*
X163395011Y-96048341D01*
X163402971Y-96031627D01*
X163422546Y-95989996D01*
X163438860Y-95953958D01*
X163450761Y-95926168D01*
X163457096Y-95909283D01*
X163457700Y-95905429D01*
X163450871Y-95909527D01*
X163437362Y-95926834D01*
X163418260Y-95955463D01*
X163394654Y-95993528D01*
X163367632Y-96039142D01*
X163338284Y-96090417D01*
X163307697Y-96145467D01*
X163276961Y-96202405D01*
X163247163Y-96259345D01*
X163219392Y-96314399D01*
X163206476Y-96340903D01*
X163107111Y-96565944D01*
X163024413Y-96793314D01*
X162958188Y-97023811D01*
X162908242Y-97258235D01*
X162874380Y-97497383D01*
X162856407Y-97742054D01*
X162854894Y-97785050D01*
X162855260Y-97994721D01*
X162868435Y-98204977D01*
X162894001Y-98412978D01*
X162931538Y-98615881D01*
X162980624Y-98810842D01*
X163028781Y-98961605D01*
X163046904Y-99014605D01*
X163058465Y-99052062D01*
X163063610Y-99074031D01*
X163062484Y-99080570D01*
X163055233Y-99071735D01*
X163042002Y-99047583D01*
X163022936Y-99008171D01*
X162998182Y-98953555D01*
X162996106Y-98948863D01*
X162923288Y-98763920D01*
X162863711Y-98569550D01*
X162817551Y-98367131D01*
X162784984Y-98158042D01*
X162766186Y-97943664D01*
X162761332Y-97725376D01*
X162770598Y-97504556D01*
X162788918Y-97322074D01*
X162800994Y-97231989D01*
X162813709Y-97148324D01*
X162827838Y-97067066D01*
X162844154Y-96984202D01*
X162863431Y-96895719D01*
X162886444Y-96797604D01*
X162903608Y-96727425D01*
X162925879Y-96639580D01*
X162948525Y-96554833D01*
X162972307Y-96470749D01*
X162997986Y-96384892D01*
X163026325Y-96294828D01*
X163058086Y-96198119D01*
X163094029Y-96092332D01*
X163134918Y-95975030D01*
X163169325Y-95877926D01*
X163179632Y-95849950D01*
X163194743Y-95810223D01*
X163213801Y-95760897D01*
X163235953Y-95704120D01*
X163260342Y-95642042D01*
X163286114Y-95576811D01*
X163312413Y-95510579D01*
X163338385Y-95445494D01*
X163363173Y-95383705D01*
X163385923Y-95327362D01*
X163405780Y-95278614D01*
X163421888Y-95239611D01*
X163433392Y-95212502D01*
X163438822Y-95200592D01*
X163447612Y-95177522D01*
X163458696Y-95138812D01*
X163471797Y-95085617D01*
X163486634Y-95019090D01*
X163502931Y-94940384D01*
X163508987Y-94909875D01*
X163526697Y-94779844D01*
X163529863Y-94647153D01*
X163518669Y-94515468D01*
X163516367Y-94503944D01*
X163493297Y-94388458D01*
X163480727Y-94344582D01*
G37*
G36*
X164138667Y-93614013D02*
G01*
X164134433Y-93618261D01*
X164130200Y-93614013D01*
X164134433Y-93609766D01*
X164138667Y-93614013D01*
G37*
G36*
X162106936Y-99168882D02*
G01*
X162004255Y-98993625D01*
X161916980Y-98811391D01*
X161845102Y-98622165D01*
X161788611Y-98425936D01*
X161747497Y-98222691D01*
X161746187Y-98214506D01*
X161739790Y-98162809D01*
X161734598Y-98098397D01*
X161730719Y-98025509D01*
X161728261Y-97948384D01*
X161727332Y-97871261D01*
X161728041Y-97798378D01*
X161730495Y-97733975D01*
X161733044Y-97699030D01*
X161735417Y-97678863D01*
X162120966Y-97678863D01*
X162127601Y-97878644D01*
X162147280Y-98070721D01*
X162180436Y-98258726D01*
X162200551Y-98345719D01*
X162208266Y-98374738D01*
X162218955Y-98412160D01*
X162231739Y-98455195D01*
X162245738Y-98501053D01*
X162260072Y-98546945D01*
X162273861Y-98590081D01*
X162286226Y-98627672D01*
X162296287Y-98656927D01*
X162303164Y-98675058D01*
X162305851Y-98679636D01*
X162305009Y-98670840D01*
X162300731Y-98648885D01*
X162293716Y-98617087D01*
X162284720Y-98579012D01*
X162246783Y-98392058D01*
X162221419Y-98197081D01*
X162208698Y-97997518D01*
X162208689Y-97796804D01*
X162221464Y-97598376D01*
X162247091Y-97405669D01*
X162259424Y-97338623D01*
X162301291Y-97153004D01*
X162352137Y-96971837D01*
X162410941Y-96798177D01*
X162476683Y-96635075D01*
X162537494Y-96506555D01*
X162553172Y-96474958D01*
X162560370Y-96457547D01*
X162558903Y-96453698D01*
X162548585Y-96462784D01*
X162530452Y-96482787D01*
X162433409Y-96601139D01*
X162352597Y-96716591D01*
X162287672Y-96829722D01*
X162238289Y-96941111D01*
X162213382Y-97016254D01*
X162172784Y-97176233D01*
X162144418Y-97331351D01*
X162127454Y-97487559D01*
X162121062Y-97650808D01*
X162120966Y-97678863D01*
X161735417Y-97678863D01*
X161749612Y-97558244D01*
X161772668Y-97422579D01*
X161801613Y-97294420D01*
X161835849Y-97176153D01*
X161874780Y-97070167D01*
X161909315Y-96995017D01*
X161969672Y-96891523D01*
X162045801Y-96785724D01*
X162136857Y-96678586D01*
X162241996Y-96571077D01*
X162360373Y-96464164D01*
X162407233Y-96425052D01*
X162435038Y-96403597D01*
X162473417Y-96375734D01*
X162518594Y-96344077D01*
X162566795Y-96311240D01*
X162614244Y-96279836D01*
X162650562Y-96256599D01*
X162673320Y-96240979D01*
X162689455Y-96227386D01*
X162694173Y-96221334D01*
X162702099Y-96206279D01*
X162718029Y-96180223D01*
X162740089Y-96145964D01*
X162766400Y-96106298D01*
X162795088Y-96064023D01*
X162824275Y-96021935D01*
X162852085Y-95982832D01*
X162875569Y-95950933D01*
X162914497Y-95900512D01*
X162957668Y-95846682D01*
X163003688Y-95790995D01*
X163051166Y-95735002D01*
X163098708Y-95680256D01*
X163144922Y-95628307D01*
X163188414Y-95580708D01*
X163227793Y-95539010D01*
X163261665Y-95504765D01*
X163288637Y-95479524D01*
X163307318Y-95464840D01*
X163314732Y-95461672D01*
X163313851Y-95468259D01*
X163304781Y-95486366D01*
X163288926Y-95513509D01*
X163267688Y-95547208D01*
X163258316Y-95561488D01*
X163129069Y-95771015D01*
X163014092Y-95988026D01*
X162913949Y-96211189D01*
X162829204Y-96439174D01*
X162760423Y-96670650D01*
X162725767Y-96816622D01*
X162704662Y-96918518D01*
X162687377Y-97010826D01*
X162673571Y-97097011D01*
X162662898Y-97180535D01*
X162655016Y-97264861D01*
X162649581Y-97353451D01*
X162646250Y-97449769D01*
X162644679Y-97557277D01*
X162644440Y-97636388D01*
X162644730Y-97731348D01*
X162645651Y-97812467D01*
X162647424Y-97882886D01*
X162650268Y-97945750D01*
X162654404Y-98004200D01*
X162660050Y-98061381D01*
X162667428Y-98120434D01*
X162676756Y-98184503D01*
X162687526Y-98252274D01*
X162735756Y-98495489D01*
X162800218Y-98734628D01*
X162880508Y-98968771D01*
X162976217Y-99196996D01*
X163086941Y-99418383D01*
X163212273Y-99632011D01*
X163351806Y-99836958D01*
X163434101Y-99945195D01*
X163502499Y-100027836D01*
X163581307Y-100116300D01*
X163666955Y-100206822D01*
X163755874Y-100295637D01*
X163844493Y-100378981D01*
X163850959Y-100384844D01*
X163877086Y-100407773D01*
X163909875Y-100435540D01*
X163945882Y-100465342D01*
X163981665Y-100494376D01*
X164013780Y-100519838D01*
X164038785Y-100538926D01*
X164049839Y-100546748D01*
X164064103Y-100558869D01*
X164070798Y-100569546D01*
X164068343Y-100574812D01*
X164060350Y-100573159D01*
X164048883Y-100568550D01*
X164024948Y-100558970D01*
X163991814Y-100545725D01*
X163952746Y-100530122D01*
X163943933Y-100526604D01*
X163857390Y-100491420D01*
X163770832Y-100454837D01*
X163677185Y-100413857D01*
X163664533Y-100408233D01*
X163635520Y-100394720D01*
X163594801Y-100374939D01*
X163545645Y-100350553D01*
X163491322Y-100323225D01*
X163435101Y-100294618D01*
X163380250Y-100266394D01*
X163330041Y-100240218D01*
X163287740Y-100217752D01*
X163257917Y-100201393D01*
X163047113Y-100074617D01*
X162851786Y-99940954D01*
X162671924Y-99800391D01*
X162507517Y-99652916D01*
X162358557Y-99498514D01*
X162305851Y-99434828D01*
X162225033Y-99337174D01*
X162106936Y-99168882D01*
G37*
G36*
X162803433Y-99952582D02*
G01*
X162818205Y-99966261D01*
X162836171Y-99986062D01*
X162900954Y-100056388D01*
X162977099Y-100129279D01*
X163060268Y-100200934D01*
X163146122Y-100267552D01*
X163203100Y-100307550D01*
X163299948Y-100367022D01*
X163406574Y-100422973D01*
X163518449Y-100473463D01*
X163631041Y-100516550D01*
X163739820Y-100550296D01*
X163808320Y-100566716D01*
X163868926Y-100581206D01*
X163916501Y-100597519D01*
X163954947Y-100617392D01*
X163988166Y-100642560D01*
X163996905Y-100650641D01*
X164027865Y-100689480D01*
X164049177Y-100735101D01*
X164059800Y-100783140D01*
X164058697Y-100829235D01*
X164047637Y-100863878D01*
X164018514Y-100902683D01*
X163975209Y-100933201D01*
X163918672Y-100954767D01*
X163916844Y-100955253D01*
X163894187Y-100960925D01*
X163874966Y-100964210D01*
X163856566Y-100964395D01*
X163836375Y-100960766D01*
X163811780Y-100952610D01*
X163780168Y-100939212D01*
X163738925Y-100919860D01*
X163685439Y-100893840D01*
X163677233Y-100889824D01*
X163525436Y-100807031D01*
X163385254Y-100712707D01*
X163255897Y-100606132D01*
X163136577Y-100486584D01*
X163026503Y-100353344D01*
X162924887Y-100205691D01*
X162920671Y-100198969D01*
X162902162Y-100167891D01*
X162881594Y-100130993D01*
X162860409Y-100091172D01*
X162840053Y-100051322D01*
X162821970Y-100014339D01*
X162807604Y-99983119D01*
X162798400Y-99960557D01*
X162795801Y-99949549D01*
X162796035Y-99949107D01*
X162803433Y-99952582D01*
G37*
G36*
X163952400Y-93410134D02*
G01*
X163948167Y-93414381D01*
X163943933Y-93410134D01*
X163948167Y-93405886D01*
X163952400Y-93410134D01*
G37*
G36*
X163664533Y-93163779D02*
G01*
X163660300Y-93168027D01*
X163656067Y-93163779D01*
X163660300Y-93159532D01*
X163664533Y-93163779D01*
G37*
G36*
X163613733Y-93129799D02*
G01*
X163609500Y-93134047D01*
X163605267Y-93129799D01*
X163609500Y-93125552D01*
X163613733Y-93129799D01*
G37*
G36*
X163300467Y-96221973D02*
G01*
X163296233Y-96226221D01*
X163292000Y-96221973D01*
X163296233Y-96217726D01*
X163300467Y-96221973D01*
G37*
G36*
X163300467Y-96196488D02*
G01*
X163296233Y-96200736D01*
X163292000Y-96196488D01*
X163296233Y-96192241D01*
X163300467Y-96196488D01*
G37*
G36*
X163139600Y-95618829D02*
G01*
X163135367Y-95623077D01*
X163131133Y-95618829D01*
X163135367Y-95614582D01*
X163139600Y-95618829D01*
G37*
G36*
X162179460Y-94113218D02*
G01*
X162192002Y-94127271D01*
X162212653Y-94155194D01*
X162241777Y-94197295D01*
X162242353Y-94198142D01*
X162268321Y-94235758D01*
X162297487Y-94276965D01*
X162327950Y-94319193D01*
X162357809Y-94359872D01*
X162385163Y-94396430D01*
X162408112Y-94426298D01*
X162424755Y-94446904D01*
X162432279Y-94455017D01*
X162445227Y-94469796D01*
X162450181Y-94477464D01*
X162463261Y-94495915D01*
X162485421Y-94522069D01*
X162514502Y-94553812D01*
X162548343Y-94589029D01*
X162584783Y-94625606D01*
X162621663Y-94661428D01*
X162656821Y-94694380D01*
X162688097Y-94722348D01*
X162713331Y-94743216D01*
X162730362Y-94754871D01*
X162735346Y-94756589D01*
X162745977Y-94761858D01*
X162761071Y-94774120D01*
X162775628Y-94785290D01*
X162801187Y-94802514D01*
X162834066Y-94823388D01*
X162868381Y-94844204D01*
X162941897Y-94892811D01*
X162998578Y-94941515D01*
X163038527Y-94990463D01*
X163061843Y-95039804D01*
X163068626Y-95089684D01*
X163062132Y-95130368D01*
X163041881Y-95172224D01*
X163009025Y-95204090D01*
X162964997Y-95225478D01*
X162911230Y-95235898D01*
X162849155Y-95234863D01*
X162787795Y-95223841D01*
X162753495Y-95214828D01*
X162725264Y-95206568D01*
X162707302Y-95200327D01*
X162703567Y-95198424D01*
X162689242Y-95190950D01*
X162674916Y-95185691D01*
X162632891Y-95167226D01*
X162585055Y-95137095D01*
X162534613Y-95098013D01*
X162484771Y-95052695D01*
X162438735Y-95003855D01*
X162399709Y-94954209D01*
X162397045Y-94950369D01*
X162353974Y-94882898D01*
X162319188Y-94816809D01*
X162291712Y-94748918D01*
X162270571Y-94676039D01*
X162254788Y-94594989D01*
X162243389Y-94502581D01*
X162237501Y-94429532D01*
X162230342Y-94352371D01*
X162219814Y-94279745D01*
X162206608Y-94215438D01*
X162191411Y-94163233D01*
X162186854Y-94151204D01*
X162177249Y-94125491D01*
X162174663Y-94112727D01*
X162179460Y-94113218D01*
G37*
G36*
X162733200Y-95219565D02*
G01*
X162728967Y-95223813D01*
X162724733Y-95219565D01*
X162728967Y-95215318D01*
X162733200Y-95219565D01*
G37*
G36*
X162183889Y-93895760D02*
G01*
X162172555Y-93910841D01*
X162153927Y-93932498D01*
X162146013Y-93941192D01*
X162086981Y-94015369D01*
X162042577Y-94093574D01*
X162013727Y-94174010D01*
X162005672Y-94212910D01*
X162003006Y-94236283D01*
X162003249Y-94259290D01*
X162006947Y-94286348D01*
X162014647Y-94321875D01*
X162023516Y-94357278D01*
X162057580Y-94478728D01*
X162094916Y-94589967D01*
X162137948Y-94697750D01*
X162174940Y-94779380D01*
X162196886Y-94830417D01*
X162209210Y-94872267D01*
X162212722Y-94909125D01*
X162208235Y-94945186D01*
X162207569Y-94948101D01*
X162190697Y-94988435D01*
X162161944Y-95026142D01*
X162126080Y-95055503D01*
X162111499Y-95063319D01*
X162061807Y-95077666D01*
X162013091Y-95075378D01*
X161965919Y-95056805D01*
X161920859Y-95022297D01*
X161878480Y-94972205D01*
X161839351Y-94906878D01*
X161831356Y-94890748D01*
X161799147Y-94816379D01*
X161777455Y-94747226D01*
X161764820Y-94676845D01*
X161759782Y-94598793D01*
X161759533Y-94573677D01*
X161767478Y-94459184D01*
X161790945Y-94349600D01*
X161829387Y-94246226D01*
X161882255Y-94150367D01*
X161949000Y-94063325D01*
X161993697Y-94017541D01*
X162019000Y-93995815D01*
X162050660Y-93971555D01*
X162085320Y-93946989D01*
X162119623Y-93924343D01*
X162150213Y-93905846D01*
X162173733Y-93893726D01*
X162185718Y-93890100D01*
X162183889Y-93895760D01*
G37*
D11*
%TO.C,U2*%
X160098000Y-119458000D02*
X160098000Y-118983000D01*
X160098000Y-115238000D02*
X160098000Y-115713000D01*
X155878000Y-119458000D02*
X155878000Y-118983000D01*
X159623000Y-119458000D02*
X160098000Y-119458000D01*
X159623000Y-115238000D02*
X160098000Y-115238000D01*
X156353000Y-119458000D02*
X155878000Y-119458000D01*
X156353000Y-115238000D02*
X155878000Y-115238000D01*
%TO.C,C5*%
X155751252Y-109166000D02*
X154328748Y-109166000D01*
X155751252Y-110986000D02*
X154328748Y-110986000D01*
%TO.C,C2*%
X161848748Y-111094000D02*
X163271252Y-111094000D01*
X161848748Y-109274000D02*
X163271252Y-109274000D01*
%TO.C,C1*%
X143434000Y-107800000D02*
X143434000Y-109800000D01*
X143434000Y-109800000D02*
X147334000Y-109800000D01*
X143434000Y-107800000D02*
X147334000Y-107800000D01*
%TO.C,R2*%
X162158000Y-73922936D02*
X162158000Y-75377064D01*
X163978000Y-73922936D02*
X163978000Y-75377064D01*
%TO.C,SW1*%
X157740000Y-127150000D02*
X157840000Y-127150000D01*
X157740000Y-122750000D02*
X157840000Y-122750000D01*
X159340000Y-127150000D02*
X159340000Y-122750000D01*
X156240000Y-122750000D02*
X156240000Y-127150000D01*
%TO.C,J1*%
X154776000Y-124547500D02*
X154776000Y-122697500D01*
X154776000Y-127097500D02*
X154776000Y-126847500D01*
X146976000Y-127097500D02*
X146976000Y-126847500D01*
X149176000Y-122147500D02*
X149176000Y-122597500D01*
X146976000Y-122697500D02*
X147426000Y-122697500D01*
X149176000Y-122147500D02*
X149626000Y-122147500D01*
X146976000Y-124547500D02*
X146976000Y-122697500D01*
X154776000Y-122697500D02*
X154326000Y-122697500D01*
%TO.C,Q1*%
X159010750Y-103796000D02*
X158360750Y-103796000D01*
X159010750Y-106916000D02*
X158360750Y-106916000D01*
X159010750Y-103796000D02*
X159660750Y-103796000D01*
X159010750Y-106916000D02*
X160685750Y-106916000D01*
%TO.C,Q2*%
X155010750Y-106878500D02*
X154360750Y-106878500D01*
X155010750Y-106878500D02*
X155660750Y-106878500D01*
X155010750Y-103758500D02*
X155660750Y-103758500D01*
X155010750Y-103758500D02*
X153335750Y-103758500D01*
%TO.C,R5*%
X150474000Y-104428936D02*
X150474000Y-105883064D01*
X152294000Y-104428936D02*
X152294000Y-105883064D01*
%TO.C,R6*%
X161650000Y-105883064D02*
X161650000Y-104428936D01*
X163470000Y-105883064D02*
X163470000Y-104428936D01*
%TO.C,D1*%
X142980000Y-121404000D02*
X142980000Y-120104000D01*
X143780000Y-121404000D02*
X143780000Y-120104000D01*
X143780000Y-120104000D02*
X142980000Y-120104000D01*
%TO.C,R10*%
X150122000Y-93952936D02*
X150122000Y-95407064D01*
X148302000Y-93952936D02*
X148302000Y-95407064D01*
%TO.C,C4*%
X155751252Y-111766000D02*
X154328748Y-111766000D01*
X155751252Y-113586000D02*
X154328748Y-113586000D01*
%TO.C,R3*%
X163740000Y-83007064D02*
X163740000Y-81552936D01*
X161920000Y-83007064D02*
X161920000Y-81552936D01*
%TO.C,R8*%
X163790000Y-88162936D02*
X163790000Y-89617064D01*
X161970000Y-88162936D02*
X161970000Y-89617064D01*
%TO.C,C6*%
X142134000Y-117652748D02*
X142134000Y-119075252D01*
X140314000Y-117652748D02*
X140314000Y-119075252D01*
%TO.C,U4*%
X141680000Y-91080000D02*
X142680000Y-91080000D01*
X141680000Y-65335000D02*
X159920000Y-65335000D01*
X159920000Y-91080000D02*
X158920000Y-91080000D01*
X159920000Y-65335000D02*
X159920000Y-71755000D01*
X141680000Y-65335000D02*
X141680000Y-71755000D01*
X159920000Y-90300000D02*
X159920000Y-91080000D01*
X141680000Y-71755000D02*
X141300000Y-71755000D01*
X141680000Y-90300000D02*
X141680000Y-91080000D01*
%TO.C,D4*%
X149920000Y-119397500D02*
X149920000Y-120697500D01*
X149120000Y-119397500D02*
X149120000Y-120697500D01*
X149120000Y-120697500D02*
X149920000Y-120697500D01*
%TO.C,C7*%
X142134000Y-113487252D02*
X142134000Y-112064748D01*
X140314000Y-113487252D02*
X140314000Y-112064748D01*
%TO.C,R1*%
X140996500Y-103552936D02*
X140996500Y-107907064D01*
X137576500Y-103552936D02*
X137576500Y-107907064D01*
%TO.C,D6*%
X153035000Y-92216000D02*
X150765000Y-92216000D01*
X153035000Y-96276000D02*
X153035000Y-92216000D01*
X150765000Y-92216000D02*
X150765000Y-96276000D01*
%TO.C,R9*%
X137535750Y-86648936D02*
X137535750Y-88103064D01*
X139355750Y-86648936D02*
X139355750Y-88103064D01*
%TO.C,D2*%
X139176000Y-116114000D02*
X137176000Y-116114000D01*
X139176000Y-116114000D02*
X139176000Y-120014000D01*
X137176000Y-116114000D02*
X137176000Y-120014000D01*
%TO.C,D3*%
X152890000Y-120617500D02*
X153690000Y-120617500D01*
X153690000Y-119317500D02*
X153690000Y-120617500D01*
X152890000Y-119317500D02*
X152890000Y-120617500D01*
%TO.C,X1*%
X145794000Y-92540000D02*
X145794000Y-93560000D01*
X144194000Y-99640000D02*
X144194000Y-98360000D01*
X144194000Y-94840000D02*
X147084000Y-94840000D01*
X145794000Y-93560000D02*
X144194000Y-93560000D01*
X137974000Y-94260000D02*
X137974000Y-98940000D01*
X145794000Y-100660000D02*
X145794000Y-99640000D01*
X141544000Y-92540000D02*
X145794000Y-92540000D01*
X141544000Y-100660000D02*
X145794000Y-100660000D01*
X144194000Y-93560000D02*
X144194000Y-94840000D01*
X145794000Y-99640000D02*
X144194000Y-99640000D01*
%TO.C,C3*%
X163271252Y-111874000D02*
X161848748Y-111874000D01*
X163271252Y-113694000D02*
X161848748Y-113694000D01*
%TO.C,R7*%
X153522000Y-93948936D02*
X153522000Y-95403064D01*
X155342000Y-93948936D02*
X155342000Y-95403064D01*
%TO.C,SW2*%
X143930000Y-127100000D02*
X144030000Y-127100000D01*
X142430000Y-122700000D02*
X142430000Y-127100000D01*
X145530000Y-127100000D02*
X145530000Y-122700000D01*
X143930000Y-122700000D02*
X144030000Y-122700000D01*
%TO.C,R11*%
X163978000Y-118075064D02*
X163978000Y-116620936D01*
X162158000Y-118075064D02*
X162158000Y-116620936D01*
%TO.C,C9*%
X139355750Y-80568748D02*
X139355750Y-81991252D01*
X137535750Y-80568748D02*
X137535750Y-81991252D01*
%TO.C,D5*%
X139176000Y-115026000D02*
X139176000Y-111126000D01*
X137176000Y-115026000D02*
X137176000Y-111126000D01*
X137176000Y-115026000D02*
X139176000Y-115026000D01*
%TO.C,C8*%
X139355750Y-75387252D02*
X139355750Y-73964748D01*
X137535750Y-75387252D02*
X137535750Y-73964748D01*
%TO.C,U1*%
X145676500Y-101870000D02*
X147626500Y-101870000D01*
X145676500Y-106990000D02*
X143726500Y-106990000D01*
X145676500Y-101870000D02*
X143726500Y-101870000D01*
X145676500Y-106990000D02*
X149126500Y-106990000D01*
%TO.C,U3*%
X149794000Y-110890000D02*
X149794000Y-112150000D01*
X143784000Y-110890000D02*
X149794000Y-110890000D01*
X149794000Y-117710000D02*
X149794000Y-116450000D01*
X146034000Y-117710000D02*
X149794000Y-117710000D01*
%TO.C,G\u002A\u002A\u002A*%
G36*
X158713625Y-96353478D02*
G01*
X158737996Y-96369899D01*
X158756655Y-96391940D01*
X158768869Y-96418373D01*
X158773901Y-96447967D01*
X158773978Y-96454391D01*
X158772786Y-96469985D01*
X158770149Y-96484277D01*
X158768686Y-96488981D01*
X158758366Y-96510061D01*
X158745299Y-96528486D01*
X158733295Y-96540016D01*
X158729645Y-96542832D01*
X158726439Y-96545381D01*
X158723261Y-96547678D01*
X158719693Y-96549737D01*
X158715319Y-96551573D01*
X158709723Y-96553200D01*
X158702488Y-96554633D01*
X158693197Y-96555887D01*
X158681434Y-96556976D01*
X158666782Y-96557914D01*
X158648824Y-96558717D01*
X158627145Y-96559398D01*
X158601326Y-96559973D01*
X158570952Y-96560455D01*
X158535606Y-96560861D01*
X158494872Y-96561203D01*
X158448332Y-96561497D01*
X158395570Y-96561757D01*
X158336170Y-96561998D01*
X158269714Y-96562235D01*
X158195787Y-96562481D01*
X158113972Y-96562752D01*
X158080033Y-96562867D01*
X157459850Y-96564983D01*
X157425983Y-96576934D01*
X157384357Y-96594965D01*
X157347044Y-96617844D01*
X157315432Y-96644603D01*
X157295381Y-96667881D01*
X157292061Y-96673135D01*
X157284633Y-96685401D01*
X157273270Y-96704387D01*
X157258144Y-96729802D01*
X157239426Y-96761352D01*
X157217290Y-96798746D01*
X157191908Y-96841690D01*
X157163451Y-96889893D01*
X157132091Y-96943062D01*
X157098003Y-97000905D01*
X157061356Y-97063130D01*
X157022325Y-97129443D01*
X156981080Y-97199553D01*
X156937795Y-97273168D01*
X156892641Y-97349994D01*
X156845791Y-97429740D01*
X156797417Y-97512113D01*
X156747691Y-97596820D01*
X156696786Y-97683571D01*
X156651425Y-97760900D01*
X156599661Y-97849130D01*
X156548932Y-97935536D01*
X156499412Y-98019828D01*
X156451270Y-98101714D01*
X156404680Y-98180905D01*
X156359812Y-98257111D01*
X156316839Y-98330040D01*
X156275931Y-98399404D01*
X156237261Y-98464911D01*
X156201000Y-98526271D01*
X156167320Y-98583194D01*
X156136392Y-98635390D01*
X156108389Y-98682568D01*
X156083481Y-98724439D01*
X156061841Y-98760711D01*
X156043639Y-98791094D01*
X156029048Y-98815299D01*
X156018240Y-98833035D01*
X156011385Y-98844011D01*
X156008754Y-98847854D01*
X155988481Y-98864515D01*
X155965424Y-98874457D01*
X155937815Y-98878377D01*
X155931039Y-98878500D01*
X155899665Y-98874772D01*
X155872456Y-98864074D01*
X155850136Y-98847140D01*
X155833433Y-98824702D01*
X155823072Y-98797490D01*
X155819779Y-98766317D01*
X155820991Y-98750682D01*
X155823692Y-98736206D01*
X155825047Y-98731804D01*
X155827564Y-98727123D01*
X155834202Y-98715422D01*
X155844796Y-98696983D01*
X155859183Y-98672087D01*
X155877198Y-98641017D01*
X155898676Y-98604054D01*
X155923453Y-98561480D01*
X155951363Y-98513576D01*
X155982244Y-98460625D01*
X156015929Y-98402909D01*
X156052255Y-98340708D01*
X156091057Y-98274305D01*
X156132170Y-98203982D01*
X156175430Y-98130021D01*
X156220673Y-98052702D01*
X156267733Y-97972309D01*
X156316447Y-97889122D01*
X156366650Y-97803424D01*
X156418177Y-97715496D01*
X156470863Y-97625620D01*
X156494650Y-97585053D01*
X156558195Y-97476696D01*
X156617606Y-97375402D01*
X156673030Y-97280928D01*
X156724612Y-97193030D01*
X156772495Y-97111466D01*
X156816826Y-97035991D01*
X156857749Y-96966363D01*
X156895410Y-96902337D01*
X156929953Y-96843671D01*
X156961524Y-96790122D01*
X156990268Y-96741446D01*
X157016329Y-96697399D01*
X157039853Y-96657739D01*
X157060985Y-96622222D01*
X157079869Y-96590604D01*
X157096652Y-96562643D01*
X157111477Y-96538094D01*
X157124490Y-96516716D01*
X157135837Y-96498263D01*
X157145661Y-96482494D01*
X157154109Y-96469164D01*
X157161325Y-96458030D01*
X157167454Y-96448850D01*
X157172641Y-96441379D01*
X157177032Y-96435374D01*
X157180771Y-96430592D01*
X157184004Y-96426789D01*
X157186875Y-96423723D01*
X157186949Y-96423649D01*
X157217903Y-96396208D01*
X157251720Y-96374287D01*
X157291059Y-96356168D01*
X157291611Y-96355953D01*
X157320150Y-96344850D01*
X158005779Y-96343729D01*
X158691407Y-96342608D01*
X158713625Y-96353478D01*
G37*
G36*
X156939333Y-99425103D02*
G01*
X156965606Y-99436440D01*
X156987226Y-99453657D01*
X156991502Y-99458881D01*
X156998081Y-99468232D01*
X157007116Y-99481962D01*
X157018757Y-99500325D01*
X157033159Y-99523573D01*
X157050472Y-99551960D01*
X157070849Y-99585738D01*
X157094442Y-99625159D01*
X157121402Y-99670477D01*
X157151883Y-99721946D01*
X157186036Y-99779816D01*
X157224012Y-99844342D01*
X157265965Y-99915776D01*
X157296867Y-99968468D01*
X157338129Y-100038849D01*
X157375354Y-100102305D01*
X157408775Y-100159221D01*
X157438628Y-100209980D01*
X157465146Y-100254967D01*
X157488564Y-100294567D01*
X157509116Y-100329165D01*
X157527036Y-100359145D01*
X157542560Y-100384892D01*
X157555920Y-100406789D01*
X157567352Y-100425223D01*
X157577090Y-100440577D01*
X157585368Y-100453236D01*
X157592421Y-100463584D01*
X157598482Y-100472006D01*
X157603787Y-100478887D01*
X157608570Y-100484611D01*
X157613064Y-100489562D01*
X157616701Y-100493318D01*
X157648222Y-100520309D01*
X157684876Y-100543654D01*
X157723501Y-100561394D01*
X157730783Y-100563963D01*
X157733663Y-100564527D01*
X157739009Y-100565058D01*
X157747082Y-100565559D01*
X157758140Y-100566030D01*
X157772442Y-100566474D01*
X157790249Y-100566892D01*
X157811818Y-100567285D01*
X157837410Y-100567656D01*
X157867284Y-100568005D01*
X157901698Y-100568335D01*
X157940913Y-100568647D01*
X157985187Y-100568942D01*
X158034779Y-100569222D01*
X158089950Y-100569488D01*
X158150957Y-100569743D01*
X158218061Y-100569987D01*
X158291520Y-100570223D01*
X158371595Y-100570451D01*
X158458543Y-100570674D01*
X158552625Y-100570893D01*
X158654099Y-100571110D01*
X158763225Y-100571325D01*
X158880262Y-100571542D01*
X159005470Y-100571760D01*
X159024067Y-100571792D01*
X160300417Y-100573950D01*
X160319514Y-100582790D01*
X160343362Y-100597995D01*
X160362755Y-100618623D01*
X160376855Y-100643016D01*
X160384824Y-100669515D01*
X160385824Y-100696463D01*
X160383494Y-100709417D01*
X160372047Y-100738303D01*
X160354428Y-100762356D01*
X160331546Y-100780557D01*
X160311869Y-100789620D01*
X160309420Y-100790250D01*
X160305705Y-100790838D01*
X160300451Y-100791387D01*
X160293383Y-100791898D01*
X160284225Y-100792372D01*
X160272702Y-100792810D01*
X160258540Y-100793214D01*
X160241463Y-100793585D01*
X160221197Y-100793925D01*
X160197467Y-100794235D01*
X160169998Y-100794516D01*
X160138514Y-100794769D01*
X160102742Y-100794997D01*
X160062406Y-100795200D01*
X160017230Y-100795379D01*
X159966941Y-100795536D01*
X159911264Y-100795673D01*
X159849922Y-100795790D01*
X159782642Y-100795890D01*
X159709148Y-100795972D01*
X159629166Y-100796040D01*
X159542421Y-100796094D01*
X159448637Y-100796135D01*
X159347540Y-100796164D01*
X159238855Y-100796184D01*
X159122307Y-100796196D01*
X158997621Y-100796200D01*
X158972290Y-100796200D01*
X158846075Y-100796197D01*
X158728049Y-100796188D01*
X158617931Y-100796171D01*
X158515444Y-100796144D01*
X158420309Y-100796107D01*
X158332246Y-100796057D01*
X158250977Y-100795994D01*
X158176224Y-100795916D01*
X158107707Y-100795822D01*
X158045147Y-100795710D01*
X157988267Y-100795579D01*
X157936787Y-100795427D01*
X157890428Y-100795253D01*
X157848912Y-100795057D01*
X157811959Y-100794835D01*
X157779292Y-100794587D01*
X157750631Y-100794312D01*
X157725697Y-100794008D01*
X157704213Y-100793674D01*
X157685898Y-100793308D01*
X157670474Y-100792909D01*
X157657663Y-100792476D01*
X157647185Y-100792007D01*
X157638763Y-100791500D01*
X157632116Y-100790955D01*
X157626967Y-100790370D01*
X157623036Y-100789743D01*
X157621552Y-100789439D01*
X157581630Y-100777104D01*
X157543288Y-100758673D01*
X157508426Y-100735322D01*
X157478946Y-100708227D01*
X157466826Y-100693654D01*
X157462817Y-100687527D01*
X157454845Y-100674622D01*
X157443200Y-100655434D01*
X157428175Y-100630460D01*
X157410062Y-100600194D01*
X157389153Y-100565132D01*
X157365738Y-100525769D01*
X157340111Y-100482602D01*
X157312563Y-100436126D01*
X157283386Y-100386835D01*
X157252872Y-100335226D01*
X157221312Y-100281794D01*
X157188998Y-100227036D01*
X157156223Y-100171445D01*
X157123279Y-100115518D01*
X157090456Y-100059750D01*
X157058047Y-100004638D01*
X157026343Y-99950675D01*
X156995638Y-99898359D01*
X156966221Y-99848183D01*
X156938386Y-99800645D01*
X156912424Y-99756239D01*
X156888628Y-99715461D01*
X156867287Y-99678807D01*
X156848696Y-99646772D01*
X156833145Y-99619851D01*
X156820927Y-99598540D01*
X156812332Y-99583335D01*
X156807654Y-99574731D01*
X156806968Y-99573305D01*
X156803360Y-99560289D01*
X156801026Y-99543418D01*
X156800536Y-99532550D01*
X156804174Y-99501429D01*
X156814994Y-99474657D01*
X156832852Y-99452490D01*
X156853629Y-99437362D01*
X156882158Y-99425419D01*
X156911121Y-99421381D01*
X156939333Y-99425103D01*
G37*
G36*
X159127296Y-95436062D02*
G01*
X159156334Y-95440729D01*
X159168449Y-95444339D01*
X159204852Y-95461541D01*
X159235919Y-95484500D01*
X159261393Y-95512232D01*
X159281019Y-95543751D01*
X159294541Y-95578071D01*
X159301702Y-95614207D01*
X159302248Y-95651174D01*
X159295921Y-95687985D01*
X159282465Y-95723656D01*
X159261626Y-95757200D01*
X159252582Y-95768208D01*
X159235437Y-95787686D01*
X159237850Y-96332150D01*
X159248839Y-96361783D01*
X159251801Y-96367850D01*
X159258776Y-96380988D01*
X159269598Y-96400907D01*
X159284104Y-96427312D01*
X159302129Y-96459913D01*
X159323509Y-96498415D01*
X159348081Y-96542526D01*
X159375679Y-96591953D01*
X159406141Y-96646404D01*
X159439301Y-96705586D01*
X159474996Y-96769207D01*
X159513062Y-96836973D01*
X159553334Y-96908592D01*
X159595649Y-96983772D01*
X159639841Y-97062219D01*
X159685748Y-97143641D01*
X159733205Y-97227745D01*
X159782048Y-97314239D01*
X159832112Y-97402830D01*
X159883234Y-97493225D01*
X159889774Y-97504783D01*
X159940865Y-97595095D01*
X159990918Y-97683599D01*
X160039772Y-97770006D01*
X160087261Y-97854026D01*
X160133221Y-97935367D01*
X160177491Y-98013741D01*
X160219905Y-98088856D01*
X160260300Y-98160423D01*
X160298514Y-98228152D01*
X160334381Y-98291752D01*
X160367738Y-98350933D01*
X160398423Y-98405405D01*
X160426271Y-98454877D01*
X160451118Y-98499061D01*
X160472802Y-98537664D01*
X160491157Y-98570398D01*
X160506022Y-98596972D01*
X160517232Y-98617096D01*
X160524624Y-98630479D01*
X160528034Y-98636832D01*
X160528200Y-98637178D01*
X160534692Y-98653564D01*
X160540764Y-98671740D01*
X160542385Y-98677395D01*
X160545538Y-98693368D01*
X160548101Y-98714215D01*
X160549876Y-98737002D01*
X160550663Y-98758798D01*
X160550265Y-98776667D01*
X160549553Y-98783250D01*
X160544484Y-98807932D01*
X160537411Y-98833241D01*
X160529397Y-98855636D01*
X160524893Y-98865584D01*
X160519743Y-98875218D01*
X160510797Y-98891332D01*
X160498349Y-98913421D01*
X160482690Y-98940983D01*
X160464113Y-98973514D01*
X160442911Y-99010510D01*
X160419376Y-99051468D01*
X160393800Y-99095883D01*
X160366477Y-99143252D01*
X160337698Y-99193071D01*
X160307756Y-99244838D01*
X160276944Y-99298047D01*
X160245554Y-99352195D01*
X160213879Y-99406779D01*
X160182211Y-99461295D01*
X160150842Y-99515239D01*
X160120066Y-99568108D01*
X160090174Y-99619398D01*
X160061460Y-99668604D01*
X160034215Y-99715225D01*
X160008732Y-99758755D01*
X159985304Y-99798691D01*
X159964223Y-99834529D01*
X159945781Y-99865767D01*
X159930272Y-99891899D01*
X159917988Y-99912423D01*
X159909220Y-99926834D01*
X159904263Y-99934630D01*
X159903377Y-99935821D01*
X159881100Y-99953382D01*
X159855391Y-99964292D01*
X159827888Y-99968557D01*
X159800232Y-99966182D01*
X159774061Y-99957173D01*
X159751014Y-99941534D01*
X159744727Y-99935304D01*
X159727347Y-99911970D01*
X159717521Y-99887085D01*
X159714607Y-99858772D01*
X159715038Y-99848560D01*
X159717115Y-99819526D01*
X159989397Y-99347955D01*
X160023256Y-99289271D01*
X160056080Y-99232300D01*
X160087605Y-99177504D01*
X160117564Y-99125347D01*
X160145694Y-99076294D01*
X160171728Y-99030809D01*
X160195403Y-98989356D01*
X160216454Y-98952398D01*
X160234614Y-98920400D01*
X160249620Y-98893826D01*
X160261206Y-98873140D01*
X160269108Y-98858805D01*
X160273059Y-98851287D01*
X160273231Y-98850919D01*
X160285134Y-98818506D01*
X160291797Y-98784309D01*
X160293612Y-98745977D01*
X160293197Y-98731638D01*
X160290762Y-98702274D01*
X160286011Y-98677661D01*
X160280659Y-98660483D01*
X160277611Y-98654113D01*
X160270512Y-98640604D01*
X160259490Y-98620182D01*
X160244670Y-98593072D01*
X160226178Y-98559499D01*
X160204141Y-98519691D01*
X160178685Y-98473871D01*
X160149936Y-98422267D01*
X160118020Y-98365103D01*
X160083064Y-98302606D01*
X160045195Y-98235001D01*
X160004537Y-98162513D01*
X159961218Y-98085369D01*
X159915363Y-98003794D01*
X159867100Y-97918014D01*
X159816553Y-97828255D01*
X159763851Y-97734742D01*
X159709118Y-97637700D01*
X159652480Y-97537356D01*
X159640117Y-97515461D01*
X159589074Y-97425060D01*
X159539071Y-97336473D01*
X159490271Y-97249989D01*
X159442837Y-97165900D01*
X159396933Y-97084494D01*
X159352720Y-97006061D01*
X159310363Y-96930891D01*
X159270024Y-96859275D01*
X159231866Y-96791500D01*
X159196053Y-96727858D01*
X159162746Y-96668638D01*
X159132110Y-96614130D01*
X159104306Y-96564623D01*
X159079499Y-96520407D01*
X159057851Y-96481772D01*
X159039526Y-96449009D01*
X159024685Y-96422405D01*
X159013492Y-96402252D01*
X159006111Y-96388839D01*
X159002704Y-96382456D01*
X159002527Y-96382080D01*
X158998393Y-96372022D01*
X158994845Y-96362097D01*
X158991837Y-96351596D01*
X158989325Y-96339813D01*
X158987265Y-96326039D01*
X158985613Y-96309567D01*
X158984324Y-96289689D01*
X158983354Y-96265697D01*
X158982658Y-96236883D01*
X158982193Y-96202539D01*
X158981913Y-96161959D01*
X158981775Y-96114433D01*
X158981734Y-96059255D01*
X158981733Y-96050293D01*
X158981733Y-95799829D01*
X158956807Y-95773183D01*
X158931500Y-95741307D01*
X158914181Y-95707866D01*
X158904449Y-95671742D01*
X158901904Y-95631817D01*
X158902330Y-95621334D01*
X158908755Y-95581101D01*
X158922700Y-95543950D01*
X158943519Y-95510732D01*
X158970565Y-95482296D01*
X159003191Y-95459495D01*
X159036767Y-95444502D01*
X159064248Y-95437953D01*
X159095513Y-95435138D01*
X159127296Y-95436062D01*
G37*
G36*
X160066898Y-95434247D02*
G01*
X160081987Y-95435904D01*
X160094510Y-95438909D01*
X160107417Y-95443950D01*
X160122219Y-95451008D01*
X160157542Y-95472661D01*
X160186582Y-95499814D01*
X160209967Y-95533093D01*
X160216441Y-95545307D01*
X160223159Y-95559131D01*
X160227710Y-95569961D01*
X160230516Y-95580030D01*
X160231999Y-95591574D01*
X160232581Y-95606826D01*
X160232683Y-95628022D01*
X160232683Y-95631307D01*
X160232545Y-95654045D01*
X160231917Y-95670453D01*
X160230479Y-95682667D01*
X160227913Y-95692823D01*
X160223897Y-95703056D01*
X160220990Y-95709417D01*
X160211812Y-95727072D01*
X160200874Y-95745450D01*
X160194279Y-95755286D01*
X160179262Y-95776189D01*
X160181883Y-96319450D01*
X160194583Y-96355433D01*
X160197049Y-96361197D01*
X160201780Y-96370868D01*
X160208874Y-96384623D01*
X160218431Y-96402635D01*
X160230547Y-96425080D01*
X160245319Y-96452132D01*
X160262847Y-96483966D01*
X160283228Y-96520756D01*
X160306560Y-96562678D01*
X160332940Y-96609906D01*
X160362466Y-96662615D01*
X160395237Y-96720979D01*
X160431350Y-96785173D01*
X160470902Y-96855372D01*
X160513993Y-96931751D01*
X160560719Y-97014484D01*
X160611178Y-97103746D01*
X160665469Y-97199712D01*
X160723688Y-97302557D01*
X160785935Y-97412455D01*
X160833454Y-97496317D01*
X160884456Y-97586321D01*
X160934439Y-97674545D01*
X160983237Y-97760695D01*
X161030684Y-97844479D01*
X161076615Y-97925605D01*
X161120866Y-98003779D01*
X161163269Y-98078709D01*
X161203660Y-98150101D01*
X161241874Y-98217665D01*
X161277744Y-98281106D01*
X161311105Y-98340132D01*
X161341793Y-98394451D01*
X161369641Y-98443769D01*
X161394484Y-98487794D01*
X161416156Y-98526233D01*
X161434493Y-98558794D01*
X161449328Y-98585184D01*
X161460496Y-98605109D01*
X161467832Y-98618279D01*
X161471170Y-98624399D01*
X161471258Y-98624572D01*
X161486639Y-98664332D01*
X161495558Y-98708028D01*
X161497717Y-98753790D01*
X161495957Y-98778770D01*
X161492670Y-98798885D01*
X161487627Y-98820269D01*
X161483450Y-98833803D01*
X161479964Y-98841283D01*
X161472527Y-98855501D01*
X161461432Y-98875950D01*
X161446972Y-98902123D01*
X161429438Y-98933515D01*
X161409122Y-98969620D01*
X161386318Y-99009930D01*
X161361318Y-99053940D01*
X161334414Y-99101143D01*
X161305898Y-99151033D01*
X161276064Y-99203104D01*
X161245202Y-99256849D01*
X161213606Y-99311761D01*
X161181569Y-99367335D01*
X161149381Y-99423065D01*
X161117337Y-99478443D01*
X161085728Y-99532964D01*
X161054846Y-99586121D01*
X161024985Y-99637408D01*
X160996436Y-99686319D01*
X160969492Y-99732347D01*
X160944445Y-99774986D01*
X160921588Y-99813729D01*
X160901213Y-99848070D01*
X160883612Y-99877504D01*
X160869078Y-99901523D01*
X160857904Y-99919621D01*
X160850380Y-99931292D01*
X160847101Y-99935753D01*
X160824431Y-99953987D01*
X160798115Y-99964728D01*
X160767692Y-99968161D01*
X160766083Y-99968144D01*
X160735560Y-99963883D01*
X160709154Y-99952554D01*
X160687569Y-99934839D01*
X160671507Y-99911416D01*
X160661669Y-99882966D01*
X160659099Y-99864530D01*
X160658633Y-99845432D01*
X160660831Y-99830592D01*
X160665464Y-99817765D01*
X160668593Y-99811799D01*
X160675701Y-99798960D01*
X160686527Y-99779704D01*
X160700811Y-99754488D01*
X160718292Y-99723767D01*
X160738708Y-99687997D01*
X160761800Y-99647634D01*
X160787306Y-99603134D01*
X160814966Y-99554952D01*
X160844517Y-99503545D01*
X160875701Y-99449369D01*
X160908255Y-99392879D01*
X160941920Y-99334531D01*
X160946062Y-99327357D01*
X160990290Y-99250659D01*
X161031022Y-99179828D01*
X161068181Y-99115001D01*
X161101689Y-99056313D01*
X161131469Y-99003901D01*
X161157445Y-98957902D01*
X161179540Y-98918453D01*
X161197677Y-98885689D01*
X161211778Y-98859748D01*
X161221766Y-98840767D01*
X161227566Y-98828881D01*
X161228781Y-98825905D01*
X161238440Y-98786907D01*
X161241777Y-98744991D01*
X161238905Y-98702572D01*
X161229942Y-98662060D01*
X161219621Y-98635083D01*
X161216749Y-98629703D01*
X161209872Y-98617247D01*
X161199155Y-98598010D01*
X161184763Y-98572284D01*
X161166861Y-98540362D01*
X161145615Y-98502539D01*
X161121190Y-98459106D01*
X161093751Y-98410357D01*
X161063464Y-98356585D01*
X161030493Y-98298083D01*
X160995004Y-98235145D01*
X160957163Y-98168064D01*
X160917134Y-98097132D01*
X160875083Y-98022644D01*
X160831174Y-97944892D01*
X160785575Y-97864169D01*
X160738449Y-97780768D01*
X160689961Y-97694984D01*
X160640278Y-97607108D01*
X160589565Y-97517434D01*
X160589020Y-97516471D01*
X160538288Y-97426770D01*
X160488579Y-97338862D01*
X160440057Y-97253040D01*
X160392888Y-97169597D01*
X160347238Y-97088826D01*
X160303272Y-97011020D01*
X160261157Y-96936474D01*
X160221057Y-96865480D01*
X160183138Y-96798332D01*
X160147565Y-96735323D01*
X160114505Y-96676746D01*
X160084123Y-96622896D01*
X160056585Y-96574064D01*
X160032055Y-96530545D01*
X160010700Y-96492632D01*
X159992686Y-96460618D01*
X159978177Y-96434797D01*
X159967340Y-96415462D01*
X159960340Y-96402906D01*
X159957342Y-96397423D01*
X159957334Y-96397406D01*
X159950643Y-96381999D01*
X159943722Y-96362572D01*
X159938190Y-96343767D01*
X159936482Y-96336660D01*
X159935028Y-96329268D01*
X159933809Y-96320876D01*
X159932803Y-96310772D01*
X159931990Y-96298241D01*
X159931351Y-96282569D01*
X159930864Y-96263044D01*
X159930509Y-96238950D01*
X159930266Y-96209575D01*
X159930114Y-96174205D01*
X159930033Y-96132125D01*
X159930003Y-96082623D01*
X159930000Y-96057021D01*
X159930000Y-95802297D01*
X159918968Y-95796393D01*
X159906339Y-95787129D01*
X159891626Y-95772536D01*
X159876663Y-95754791D01*
X159863284Y-95736072D01*
X159853322Y-95718555D01*
X159853210Y-95718317D01*
X159839927Y-95680581D01*
X159834336Y-95641622D01*
X159836207Y-95602674D01*
X159845311Y-95564972D01*
X159861417Y-95529750D01*
X159884294Y-95498242D01*
X159896584Y-95485745D01*
X159923946Y-95463397D01*
X159951389Y-95447678D01*
X159980833Y-95437915D01*
X160014197Y-95433434D01*
X160046292Y-95433247D01*
X160066898Y-95434247D01*
G37*
G36*
X158568771Y-97161886D02*
G01*
X158649387Y-97161897D01*
X158722325Y-97161921D01*
X158787980Y-97161962D01*
X158846746Y-97162026D01*
X158899018Y-97162115D01*
X158945190Y-97162236D01*
X158985658Y-97162392D01*
X159020814Y-97162587D01*
X159051055Y-97162827D01*
X159076774Y-97163116D01*
X159098366Y-97163459D01*
X159116226Y-97163859D01*
X159130747Y-97164321D01*
X159142325Y-97164850D01*
X159151354Y-97165450D01*
X159158228Y-97166127D01*
X159163342Y-97166883D01*
X159167091Y-97167724D01*
X159169869Y-97168655D01*
X159172070Y-97169679D01*
X159172233Y-97169766D01*
X159194686Y-97185313D01*
X159213868Y-97205405D01*
X159224039Y-97221150D01*
X159230673Y-97240287D01*
X159234053Y-97263479D01*
X159233957Y-97287047D01*
X159230166Y-97307314D01*
X159229332Y-97309666D01*
X159214814Y-97336479D01*
X159193828Y-97357829D01*
X159181615Y-97366047D01*
X159161650Y-97377783D01*
X158552050Y-97380091D01*
X158467856Y-97380415D01*
X158391706Y-97380721D01*
X158323178Y-97381016D01*
X158261849Y-97381307D01*
X158207296Y-97381600D01*
X158159098Y-97381902D01*
X158116831Y-97382219D01*
X158080073Y-97382559D01*
X158048401Y-97382926D01*
X158021394Y-97383329D01*
X157998628Y-97383773D01*
X157979681Y-97384266D01*
X157964131Y-97384813D01*
X157951554Y-97385421D01*
X157941529Y-97386098D01*
X157933632Y-97386848D01*
X157927443Y-97387680D01*
X157922537Y-97388599D01*
X157918492Y-97389613D01*
X157917344Y-97389948D01*
X157875738Y-97405890D01*
X157837192Y-97427372D01*
X157803414Y-97453277D01*
X157776154Y-97482429D01*
X157772613Y-97487888D01*
X157764965Y-97500360D01*
X157753384Y-97519551D01*
X157738044Y-97545169D01*
X157719116Y-97576920D01*
X157696774Y-97614512D01*
X157671191Y-97657651D01*
X157642541Y-97706044D01*
X157610995Y-97759399D01*
X157576727Y-97817421D01*
X157539910Y-97879819D01*
X157500717Y-97946298D01*
X157459321Y-98016567D01*
X157415895Y-98090331D01*
X157370612Y-98167298D01*
X157323646Y-98247175D01*
X157275168Y-98329669D01*
X157225352Y-98414486D01*
X157174372Y-98501334D01*
X157128473Y-98579564D01*
X157076661Y-98667862D01*
X157025884Y-98754336D01*
X156976312Y-98838696D01*
X156928118Y-98920652D01*
X156881473Y-98999915D01*
X156836549Y-99076193D01*
X156793517Y-99149196D01*
X156752549Y-99218635D01*
X156713816Y-99284220D01*
X156677491Y-99345660D01*
X156643744Y-99402666D01*
X156612748Y-99454947D01*
X156584673Y-99502213D01*
X156559692Y-99544174D01*
X156537976Y-99580540D01*
X156519697Y-99611021D01*
X156505026Y-99635327D01*
X156494136Y-99653168D01*
X156487196Y-99664253D01*
X156484471Y-99668215D01*
X156462173Y-99685284D01*
X156436203Y-99695795D01*
X156408316Y-99699686D01*
X156380269Y-99696895D01*
X156353820Y-99687359D01*
X156333501Y-99673551D01*
X156313901Y-99651004D01*
X156301058Y-99624498D01*
X156295519Y-99595688D01*
X156297830Y-99566227D01*
X156297916Y-99565839D01*
X156299717Y-99561453D01*
X156304197Y-99552580D01*
X156311437Y-99539077D01*
X156321524Y-99520799D01*
X156334539Y-99497603D01*
X156350567Y-99469344D01*
X156369691Y-99435879D01*
X156391994Y-99397062D01*
X156417561Y-99352750D01*
X156446475Y-99302799D01*
X156478820Y-99247064D01*
X156514678Y-99185402D01*
X156554135Y-99117668D01*
X156597272Y-99043718D01*
X156644175Y-98963408D01*
X156694926Y-98876594D01*
X156749609Y-98783132D01*
X156808308Y-98682877D01*
X156871107Y-98575686D01*
X156938088Y-98461414D01*
X156970084Y-98406846D01*
X157033697Y-98298372D01*
X157093177Y-98196960D01*
X157148669Y-98102367D01*
X157200317Y-98014350D01*
X157248267Y-97932665D01*
X157292665Y-97857070D01*
X157333655Y-97787320D01*
X157371382Y-97723172D01*
X157405992Y-97664383D01*
X157437630Y-97610709D01*
X157466440Y-97561907D01*
X157492569Y-97517733D01*
X157516161Y-97477945D01*
X157537361Y-97442298D01*
X157556314Y-97410550D01*
X157573166Y-97382456D01*
X157588062Y-97357774D01*
X157601147Y-97336259D01*
X157612566Y-97317669D01*
X157622464Y-97301761D01*
X157630987Y-97288290D01*
X157638279Y-97277014D01*
X157644485Y-97267688D01*
X157649752Y-97260070D01*
X157654223Y-97253916D01*
X157658045Y-97248983D01*
X157661361Y-97245027D01*
X157664319Y-97241805D01*
X157665537Y-97240563D01*
X157696114Y-97213511D01*
X157728450Y-97192469D01*
X157765568Y-97175520D01*
X157771700Y-97173225D01*
X157802750Y-97161883D01*
X158480083Y-97161883D01*
X158568771Y-97161886D01*
G37*
G36*
X158093067Y-96749736D02*
G01*
X158181243Y-96749843D01*
X158272650Y-96750000D01*
X158359183Y-96750168D01*
X158437656Y-96750326D01*
X158508476Y-96750480D01*
X158572051Y-96750637D01*
X158628786Y-96750802D01*
X158679089Y-96750981D01*
X158723366Y-96751182D01*
X158762025Y-96751409D01*
X158795472Y-96751670D01*
X158824114Y-96751969D01*
X158848358Y-96752315D01*
X158868612Y-96752711D01*
X158885281Y-96753166D01*
X158898772Y-96753684D01*
X158909494Y-96754273D01*
X158917851Y-96754937D01*
X158924252Y-96755684D01*
X158929103Y-96756520D01*
X158932811Y-96757450D01*
X158935783Y-96758481D01*
X158938426Y-96759619D01*
X158939448Y-96760090D01*
X158965007Y-96776310D01*
X158984763Y-96797972D01*
X158998066Y-96823804D01*
X159004269Y-96852531D01*
X159002723Y-96882882D01*
X159002517Y-96883979D01*
X158993069Y-96911868D01*
X158976851Y-96935944D01*
X158955051Y-96954879D01*
X158928858Y-96967342D01*
X158927713Y-96967694D01*
X158923755Y-96968525D01*
X158917417Y-96969277D01*
X158908306Y-96969952D01*
X158896030Y-96970555D01*
X158880196Y-96971089D01*
X158860411Y-96971558D01*
X158836284Y-96971966D01*
X158807421Y-96972317D01*
X158773431Y-96972614D01*
X158733920Y-96972860D01*
X158688495Y-96973061D01*
X158636765Y-96973218D01*
X158578337Y-96973337D01*
X158512818Y-96973421D01*
X158439815Y-96973473D01*
X158358937Y-96973497D01*
X158314988Y-96973500D01*
X158232227Y-96973503D01*
X158157498Y-96973515D01*
X158090362Y-96973542D01*
X158030385Y-96973590D01*
X157977131Y-96973665D01*
X157930163Y-96973773D01*
X157889045Y-96973919D01*
X157853341Y-96974110D01*
X157822615Y-96974350D01*
X157796431Y-96974647D01*
X157774353Y-96975005D01*
X157755945Y-96975430D01*
X157740771Y-96975929D01*
X157728395Y-96976507D01*
X157718380Y-96977170D01*
X157710290Y-96977924D01*
X157703690Y-96978774D01*
X157698143Y-96979727D01*
X157693214Y-96980788D01*
X157688913Y-96981848D01*
X157643766Y-96997563D01*
X157602875Y-97020330D01*
X157566912Y-97049678D01*
X157536549Y-97085141D01*
X157532616Y-97090814D01*
X157528888Y-97096818D01*
X157521056Y-97109830D01*
X157509296Y-97129553D01*
X157493780Y-97155691D01*
X157474686Y-97187946D01*
X157452188Y-97226021D01*
X157426460Y-97269619D01*
X157397677Y-97318443D01*
X157366015Y-97372195D01*
X157331648Y-97430578D01*
X157294751Y-97493296D01*
X157255499Y-97560050D01*
X157214067Y-97630544D01*
X157170630Y-97704480D01*
X157125363Y-97781562D01*
X157078440Y-97861492D01*
X157030037Y-97943973D01*
X156980328Y-98028708D01*
X156929489Y-98115400D01*
X156890375Y-98182117D01*
X156838900Y-98269911D01*
X156788473Y-98355884D01*
X156739267Y-98439743D01*
X156691452Y-98521196D01*
X156645202Y-98599952D01*
X156600688Y-98675718D01*
X156558082Y-98748202D01*
X156517556Y-98817112D01*
X156479282Y-98882158D01*
X156443432Y-98943046D01*
X156410177Y-98999484D01*
X156379690Y-99051181D01*
X156352143Y-99097846D01*
X156327707Y-99139185D01*
X156306554Y-99174907D01*
X156288857Y-99204720D01*
X156274788Y-99228332D01*
X156264517Y-99245452D01*
X156258218Y-99255786D01*
X156256166Y-99258957D01*
X156236410Y-99277535D01*
X156212841Y-99289657D01*
X156186911Y-99295499D01*
X156160069Y-99295238D01*
X156133766Y-99289050D01*
X156109453Y-99277112D01*
X156088579Y-99259599D01*
X156072595Y-99236689D01*
X156072564Y-99236630D01*
X156065497Y-99216536D01*
X156061936Y-99192925D01*
X156062171Y-99169506D01*
X156065907Y-99151550D01*
X156068632Y-99146251D01*
X156075457Y-99133999D01*
X156086182Y-99115134D01*
X156100608Y-99089997D01*
X156118535Y-99058929D01*
X156139762Y-99022270D01*
X156164091Y-98980359D01*
X156191321Y-98933539D01*
X156221252Y-98882148D01*
X156253685Y-98826528D01*
X156288420Y-98767018D01*
X156325256Y-98703960D01*
X156363994Y-98637694D01*
X156404434Y-98568560D01*
X156446377Y-98496898D01*
X156489622Y-98423050D01*
X156533970Y-98347354D01*
X156579220Y-98270153D01*
X156625173Y-98191786D01*
X156671629Y-98112593D01*
X156718388Y-98032916D01*
X156765251Y-97953094D01*
X156812017Y-97873468D01*
X156858486Y-97794379D01*
X156904459Y-97716166D01*
X156949736Y-97639171D01*
X156994117Y-97563733D01*
X157037403Y-97490193D01*
X157079392Y-97418892D01*
X157119886Y-97350170D01*
X157158685Y-97284367D01*
X157195588Y-97221823D01*
X157230397Y-97162880D01*
X157262910Y-97107878D01*
X157292929Y-97057156D01*
X157320252Y-97011056D01*
X157344682Y-96969918D01*
X157366017Y-96934082D01*
X157384058Y-96903889D01*
X157398604Y-96879679D01*
X157409457Y-96861792D01*
X157416416Y-96850570D01*
X157419141Y-96846500D01*
X157449378Y-96816520D01*
X157485559Y-96791108D01*
X157525992Y-96771180D01*
X157568981Y-96757651D01*
X157591083Y-96753547D01*
X157598935Y-96752843D01*
X157612172Y-96752213D01*
X157631032Y-96751656D01*
X157655753Y-96751171D01*
X157686573Y-96750757D01*
X157723730Y-96750413D01*
X157767461Y-96750137D01*
X157818005Y-96749927D01*
X157875599Y-96749784D01*
X157940483Y-96749705D01*
X158012892Y-96749689D01*
X158093067Y-96749736D01*
G37*
G36*
X157180146Y-99030534D02*
G01*
X157205783Y-99040523D01*
X157227179Y-99056287D01*
X157229726Y-99058940D01*
X157233203Y-99064025D01*
X157240699Y-99075976D01*
X157251951Y-99094356D01*
X157266698Y-99118724D01*
X157284679Y-99148643D01*
X157305632Y-99183673D01*
X157329295Y-99223375D01*
X157355408Y-99267311D01*
X157383709Y-99315042D01*
X157413936Y-99366128D01*
X157445828Y-99420131D01*
X157479124Y-99476612D01*
X157513562Y-99535132D01*
X157525730Y-99555833D01*
X157560645Y-99615194D01*
X157594603Y-99672816D01*
X157627333Y-99728248D01*
X157658567Y-99781036D01*
X157688035Y-99830729D01*
X157715466Y-99876875D01*
X157740591Y-99919020D01*
X157763141Y-99956715D01*
X157782845Y-99989504D01*
X157799434Y-100016938D01*
X157812639Y-100038563D01*
X157822188Y-100053928D01*
X157827814Y-100062579D01*
X157828724Y-100063833D01*
X157857347Y-100094102D01*
X157892736Y-100120693D01*
X157933696Y-100142808D01*
X157965733Y-100155432D01*
X157968186Y-100156192D01*
X157971096Y-100156903D01*
X157974750Y-100157566D01*
X157979432Y-100158185D01*
X157985429Y-100158760D01*
X157993026Y-100159295D01*
X158002509Y-100159792D01*
X158014162Y-100160252D01*
X158028273Y-100160679D01*
X158045125Y-100161073D01*
X158065006Y-100161438D01*
X158088201Y-100161775D01*
X158114994Y-100162087D01*
X158145673Y-100162376D01*
X158180522Y-100162644D01*
X158219826Y-100162894D01*
X158263873Y-100163126D01*
X158312947Y-100163345D01*
X158367333Y-100163551D01*
X158427318Y-100163747D01*
X158493187Y-100163935D01*
X158565225Y-100164118D01*
X158643718Y-100164298D01*
X158728953Y-100164476D01*
X158821214Y-100164655D01*
X158920786Y-100164837D01*
X159027957Y-100165025D01*
X159143010Y-100165220D01*
X159266232Y-100165424D01*
X159271717Y-100165433D01*
X160554417Y-100167550D01*
X160574382Y-100179286D01*
X160598542Y-100198155D01*
X160616512Y-100222775D01*
X160622019Y-100234317D01*
X160626821Y-100253110D01*
X160628273Y-100275866D01*
X160626440Y-100298799D01*
X160621383Y-100318124D01*
X160620595Y-100319950D01*
X160604301Y-100346582D01*
X160582756Y-100366674D01*
X160567290Y-100375547D01*
X160545950Y-100385484D01*
X159209952Y-100385525D01*
X159083843Y-100385529D01*
X158965918Y-100385529D01*
X158855896Y-100385525D01*
X158753494Y-100385515D01*
X158658432Y-100385497D01*
X158570426Y-100385469D01*
X158489196Y-100385430D01*
X158414458Y-100385378D01*
X158345931Y-100385311D01*
X158283334Y-100385227D01*
X158226383Y-100385126D01*
X158174797Y-100385004D01*
X158128295Y-100384861D01*
X158086594Y-100384695D01*
X158049412Y-100384503D01*
X158016468Y-100384285D01*
X157987478Y-100384038D01*
X157962162Y-100383761D01*
X157940238Y-100383452D01*
X157921423Y-100383110D01*
X157905435Y-100382732D01*
X157891993Y-100382317D01*
X157880815Y-100381864D01*
X157871618Y-100381370D01*
X157864121Y-100380833D01*
X157858041Y-100380253D01*
X157853097Y-100379627D01*
X157849007Y-100378954D01*
X157845489Y-100378232D01*
X157842261Y-100377459D01*
X157841256Y-100377204D01*
X157797663Y-100361860D01*
X157757349Y-100339311D01*
X157721671Y-100310423D01*
X157700785Y-100287641D01*
X157696721Y-100281626D01*
X157688703Y-100268835D01*
X157677025Y-100249766D01*
X157661977Y-100224913D01*
X157643853Y-100194772D01*
X157622943Y-100159840D01*
X157599540Y-100120612D01*
X157573937Y-100077585D01*
X157546424Y-100031253D01*
X157517295Y-99982113D01*
X157486841Y-99930662D01*
X157455354Y-99877394D01*
X157423126Y-99822805D01*
X157390450Y-99767392D01*
X157357617Y-99711650D01*
X157324919Y-99656076D01*
X157292649Y-99601165D01*
X157261098Y-99547413D01*
X157230559Y-99495316D01*
X157201323Y-99445370D01*
X157173683Y-99398070D01*
X157147930Y-99353914D01*
X157124357Y-99313396D01*
X157103255Y-99277012D01*
X157084918Y-99245258D01*
X157069636Y-99218631D01*
X157057701Y-99197626D01*
X157049407Y-99182739D01*
X157045044Y-99174466D01*
X157044506Y-99173243D01*
X157038434Y-99144532D01*
X157040064Y-99115930D01*
X157048813Y-99088922D01*
X157064095Y-99064994D01*
X157085326Y-99045632D01*
X157097630Y-99038308D01*
X157124085Y-99029117D01*
X157152251Y-99026628D01*
X157180146Y-99030534D01*
G37*
G36*
X156688273Y-99833616D02*
G01*
X156715570Y-99843046D01*
X156739380Y-99860153D01*
X156743302Y-99864070D01*
X156747232Y-99869574D01*
X156755174Y-99881945D01*
X156766864Y-99900741D01*
X156782036Y-99925521D01*
X156800427Y-99955845D01*
X156821773Y-99991271D01*
X156845808Y-100031358D01*
X156872270Y-100075665D01*
X156900893Y-100123751D01*
X156931414Y-100175175D01*
X156963568Y-100229495D01*
X156997090Y-100286271D01*
X157031717Y-100345061D01*
X157045530Y-100368552D01*
X157080562Y-100428115D01*
X157114604Y-100485913D01*
X157147390Y-100541497D01*
X157178655Y-100594420D01*
X157208133Y-100644234D01*
X157235557Y-100690494D01*
X157260661Y-100732750D01*
X157283180Y-100770555D01*
X157302848Y-100803462D01*
X157319398Y-100831024D01*
X157332566Y-100852793D01*
X157342084Y-100868322D01*
X157347687Y-100877162D01*
X157348729Y-100878669D01*
X157375464Y-100908181D01*
X157408305Y-100934337D01*
X157445136Y-100955799D01*
X157483841Y-100971229D01*
X157502968Y-100976207D01*
X157506701Y-100976811D01*
X157512192Y-100977375D01*
X157519717Y-100977900D01*
X157529555Y-100978388D01*
X157541981Y-100978840D01*
X157557274Y-100979258D01*
X157575708Y-100979642D01*
X157597563Y-100979994D01*
X157623114Y-100980316D01*
X157652639Y-100980609D01*
X157686414Y-100980873D01*
X157724716Y-100981111D01*
X157767822Y-100981324D01*
X157816010Y-100981513D01*
X157869555Y-100981679D01*
X157928736Y-100981824D01*
X157993828Y-100981949D01*
X158065109Y-100982055D01*
X158142856Y-100982145D01*
X158227345Y-100982218D01*
X158318854Y-100982276D01*
X158417660Y-100982322D01*
X158524039Y-100982355D01*
X158638268Y-100982378D01*
X158760624Y-100982391D01*
X158789407Y-100982393D01*
X158913148Y-100982396D01*
X159028708Y-100982393D01*
X159136370Y-100982389D01*
X159236420Y-100982390D01*
X159329143Y-100982402D01*
X159414822Y-100982430D01*
X159493743Y-100982480D01*
X159566191Y-100982557D01*
X159632450Y-100982667D01*
X159692805Y-100982814D01*
X159747541Y-100983005D01*
X159796942Y-100983246D01*
X159841293Y-100983541D01*
X159880880Y-100983896D01*
X159915986Y-100984317D01*
X159946897Y-100984809D01*
X159973896Y-100985378D01*
X159997270Y-100986029D01*
X160017303Y-100986768D01*
X160034278Y-100987600D01*
X160048482Y-100988531D01*
X160060199Y-100989566D01*
X160069714Y-100990710D01*
X160077311Y-100991970D01*
X160083275Y-100993351D01*
X160087891Y-100994858D01*
X160091443Y-100996497D01*
X160094217Y-100998273D01*
X160096497Y-101000192D01*
X160098568Y-101002259D01*
X160100715Y-101004480D01*
X160103221Y-101006861D01*
X160104356Y-101007831D01*
X160121668Y-101027208D01*
X160134397Y-101051745D01*
X160141714Y-101079015D01*
X160142793Y-101106590D01*
X160141413Y-101116552D01*
X160137605Y-101131164D01*
X160132624Y-101144474D01*
X160131684Y-101146405D01*
X160121654Y-101160512D01*
X160106777Y-101175473D01*
X160089960Y-101188756D01*
X160074109Y-101197831D01*
X160071461Y-101198865D01*
X160068847Y-101199429D01*
X160064134Y-101199957D01*
X160057060Y-101200450D01*
X160047364Y-101200909D01*
X160034786Y-101201335D01*
X160019064Y-101201729D01*
X159999937Y-101202093D01*
X159977145Y-101202428D01*
X159950427Y-101202734D01*
X159919521Y-101203013D01*
X159884168Y-101203266D01*
X159844105Y-101203495D01*
X159799072Y-101203699D01*
X159748808Y-101203881D01*
X159693053Y-101204042D01*
X159631545Y-101204182D01*
X159564023Y-101204303D01*
X159490226Y-101204406D01*
X159409894Y-101204492D01*
X159322766Y-101204562D01*
X159228580Y-101204618D01*
X159127077Y-101204660D01*
X159017994Y-101204689D01*
X158901071Y-101204708D01*
X158776047Y-101204716D01*
X158723500Y-101204717D01*
X158597465Y-101204715D01*
X158479617Y-101204710D01*
X158369673Y-101204699D01*
X158267354Y-101204682D01*
X158172378Y-101204655D01*
X158084465Y-101204619D01*
X158003333Y-101204570D01*
X157928703Y-101204508D01*
X157860294Y-101204431D01*
X157797823Y-101204338D01*
X157741012Y-101204226D01*
X157689578Y-101204095D01*
X157643242Y-101203942D01*
X157601722Y-101203766D01*
X157564738Y-101203565D01*
X157532009Y-101203339D01*
X157503253Y-101203084D01*
X157478191Y-101202801D01*
X157456541Y-101202486D01*
X157438023Y-101202139D01*
X157422356Y-101201757D01*
X157409259Y-101201340D01*
X157398451Y-101200886D01*
X157389652Y-101200392D01*
X157382580Y-101199858D01*
X157376955Y-101199282D01*
X157372497Y-101198663D01*
X157368923Y-101197998D01*
X157365955Y-101197286D01*
X157364938Y-101197006D01*
X157324274Y-101181914D01*
X157285717Y-101160800D01*
X157251377Y-101134994D01*
X157226344Y-101109489D01*
X157221903Y-101103091D01*
X157213535Y-101089927D01*
X157201527Y-101070491D01*
X157186169Y-101045273D01*
X157167749Y-101014766D01*
X157146558Y-100979460D01*
X157122882Y-100939848D01*
X157097012Y-100896420D01*
X157069236Y-100849668D01*
X157039843Y-100800085D01*
X157009122Y-100748161D01*
X156977362Y-100694388D01*
X156944851Y-100639257D01*
X156911880Y-100583260D01*
X156878736Y-100526889D01*
X156845708Y-100470636D01*
X156813086Y-100414991D01*
X156781158Y-100360446D01*
X156750213Y-100307493D01*
X156720540Y-100256623D01*
X156692428Y-100208328D01*
X156666165Y-100163100D01*
X156642042Y-100121430D01*
X156620346Y-100083809D01*
X156601367Y-100050729D01*
X156585393Y-100022682D01*
X156572713Y-100000160D01*
X156563617Y-99983653D01*
X156558392Y-99973653D01*
X156557259Y-99971056D01*
X156552975Y-99943350D01*
X156556407Y-99915083D01*
X156567135Y-99888041D01*
X156581561Y-99867484D01*
X156602698Y-99848962D01*
X156627967Y-99837262D01*
X156657792Y-99831978D01*
X156688273Y-99833616D01*
G37*
G36*
X158748922Y-99451683D02*
G01*
X159047350Y-99656566D01*
X159049547Y-99246800D01*
X159218800Y-99246800D01*
X159218800Y-99894500D01*
X159133075Y-99894428D01*
X159047350Y-99894357D01*
X158751017Y-99679342D01*
X158454683Y-99464328D01*
X158452490Y-99894500D01*
X158270533Y-99894500D01*
X158270533Y-99246800D01*
X158450495Y-99246800D01*
X158748922Y-99451683D01*
G37*
G36*
X159218800Y-99094400D02*
G01*
X158270533Y-99094400D01*
X158270533Y-98531367D01*
X158439867Y-98531367D01*
X158439867Y-98908133D01*
X158655767Y-98908133D01*
X158655767Y-98565233D01*
X158825100Y-98565233D01*
X158825100Y-98908133D01*
X159049467Y-98908133D01*
X159049467Y-98527133D01*
X159218800Y-98527133D01*
X159218800Y-99094400D01*
G37*
G36*
X158272650Y-98385317D02*
G01*
X158268875Y-98357800D01*
X158268008Y-98347336D01*
X158267188Y-98329536D01*
X158266438Y-98305530D01*
X158265784Y-98276450D01*
X158265251Y-98243426D01*
X158264865Y-98207589D01*
X158264649Y-98170068D01*
X158264641Y-98167300D01*
X158264546Y-98125480D01*
X158264547Y-98106892D01*
X158429658Y-98106892D01*
X158429700Y-98119026D01*
X158430001Y-98143157D01*
X158430583Y-98164461D01*
X158431381Y-98181442D01*
X158432328Y-98192602D01*
X158433116Y-98196284D01*
X158436082Y-98197272D01*
X158443936Y-98198133D01*
X158457063Y-98198872D01*
X158475846Y-98199497D01*
X158500671Y-98200013D01*
X158531923Y-98200425D01*
X158569985Y-98200741D01*
X158615244Y-98200965D01*
X158668082Y-98201104D01*
X158728886Y-98201163D01*
X158748964Y-98201167D01*
X159061796Y-98201167D01*
X159063257Y-98170475D01*
X159064612Y-98137962D01*
X159065182Y-98112103D01*
X159064922Y-98091120D01*
X159063790Y-98073232D01*
X159061742Y-98056660D01*
X159060281Y-98047858D01*
X159048683Y-98004025D01*
X159030477Y-97965469D01*
X159005687Y-97932207D01*
X158974340Y-97904254D01*
X158936458Y-97881626D01*
X158892069Y-97864339D01*
X158841196Y-97852410D01*
X158783864Y-97845852D01*
X158740433Y-97844469D01*
X158680764Y-97846997D01*
X158627582Y-97854888D01*
X158580763Y-97868214D01*
X158540185Y-97887046D01*
X158505724Y-97911456D01*
X158477257Y-97941516D01*
X158454662Y-97977297D01*
X158437815Y-98018871D01*
X158437077Y-98021250D01*
X158434041Y-98032784D01*
X158431908Y-98045445D01*
X158430550Y-98060902D01*
X158429842Y-98080828D01*
X158429658Y-98106892D01*
X158264547Y-98106892D01*
X158264548Y-98091131D01*
X158264690Y-98063262D01*
X158265016Y-98040876D01*
X158265571Y-98022981D01*
X158266398Y-98008581D01*
X158267540Y-97996684D01*
X158269043Y-97986294D01*
X158270949Y-97976418D01*
X158273302Y-97966062D01*
X158273563Y-97964963D01*
X158291249Y-97905989D01*
X158314767Y-97853099D01*
X158344164Y-97806251D01*
X158379488Y-97765406D01*
X158420785Y-97730523D01*
X158468103Y-97701561D01*
X158521487Y-97678480D01*
X158580986Y-97661238D01*
X158636259Y-97651165D01*
X158656406Y-97649185D01*
X158682605Y-97647803D01*
X158712631Y-97647021D01*
X158744259Y-97646841D01*
X158775263Y-97647264D01*
X158803418Y-97648292D01*
X158826500Y-97649927D01*
X158835683Y-97651007D01*
X158902048Y-97663853D01*
X158962342Y-97682573D01*
X159016657Y-97707231D01*
X159065083Y-97737893D01*
X159107711Y-97774625D01*
X159144632Y-97817491D01*
X159175936Y-97866558D01*
X159197923Y-97912534D01*
X159211999Y-97953798D01*
X159222862Y-98001898D01*
X159230280Y-98055746D01*
X159231482Y-98068934D01*
X159232952Y-98087259D01*
X159233999Y-98102748D01*
X159234620Y-98117012D01*
X159234814Y-98131663D01*
X159234577Y-98148313D01*
X159233908Y-98168575D01*
X159232804Y-98194060D01*
X159231264Y-98226380D01*
X159231255Y-98226567D01*
X159229859Y-98254400D01*
X159228295Y-98284085D01*
X159226738Y-98312391D01*
X159225361Y-98336087D01*
X159225133Y-98339827D01*
X159222196Y-98387470D01*
X159061796Y-98387106D01*
X158747423Y-98386393D01*
X158272650Y-98385317D01*
G37*
G36*
X159603362Y-95157124D02*
G01*
X159641916Y-95168908D01*
X159677048Y-95188391D01*
X159705633Y-95212553D01*
X159731645Y-95244438D01*
X159750172Y-95279434D01*
X159761166Y-95316610D01*
X159764580Y-95355034D01*
X159760367Y-95393772D01*
X159748479Y-95431892D01*
X159728871Y-95468463D01*
X159719279Y-95481897D01*
X159703517Y-95502417D01*
X159705633Y-95917283D01*
X159707750Y-96332150D01*
X159718713Y-96361783D01*
X159721669Y-96367849D01*
X159728633Y-96380991D01*
X159739439Y-96400916D01*
X159753924Y-96427332D01*
X159771923Y-96459946D01*
X159793275Y-96498465D01*
X159817813Y-96542597D01*
X159845376Y-96592049D01*
X159875798Y-96646529D01*
X159908916Y-96705744D01*
X159944567Y-96769401D01*
X159982587Y-96837208D01*
X160022811Y-96908873D01*
X160065076Y-96984102D01*
X160109219Y-97062603D01*
X160155075Y-97144084D01*
X160202481Y-97228251D01*
X160251273Y-97314812D01*
X160301287Y-97403476D01*
X160352359Y-97493948D01*
X160359674Y-97506900D01*
X160410749Y-97597349D01*
X160460795Y-97686006D01*
X160509648Y-97772581D01*
X160557146Y-97856782D01*
X160603124Y-97938318D01*
X160647418Y-98016898D01*
X160689865Y-98092231D01*
X160730302Y-98164026D01*
X160768564Y-98231993D01*
X160804487Y-98295839D01*
X160837909Y-98355275D01*
X160868665Y-98410009D01*
X160896593Y-98459751D01*
X160921527Y-98504208D01*
X160943305Y-98543091D01*
X160961762Y-98576108D01*
X160976736Y-98602968D01*
X160988062Y-98623380D01*
X160995576Y-98637054D01*
X160999116Y-98643697D01*
X160999311Y-98644108D01*
X161013093Y-98684973D01*
X161020116Y-98729178D01*
X161020182Y-98774705D01*
X161015633Y-98808058D01*
X161010483Y-98828159D01*
X161003227Y-98849664D01*
X160997623Y-98863091D01*
X160993729Y-98870533D01*
X160985963Y-98884624D01*
X160974615Y-98904861D01*
X160959976Y-98930739D01*
X160942339Y-98961754D01*
X160921995Y-98997401D01*
X160899234Y-99037177D01*
X160874350Y-99080577D01*
X160847632Y-99127097D01*
X160819373Y-99176234D01*
X160789863Y-99227481D01*
X160759395Y-99280337D01*
X160728260Y-99334296D01*
X160696749Y-99388854D01*
X160665154Y-99443506D01*
X160633765Y-99497750D01*
X160602876Y-99551080D01*
X160572776Y-99602993D01*
X160543758Y-99652984D01*
X160516112Y-99700549D01*
X160490131Y-99745183D01*
X160466106Y-99786384D01*
X160444328Y-99823645D01*
X160425089Y-99856464D01*
X160408680Y-99884337D01*
X160395392Y-99906757D01*
X160385517Y-99923223D01*
X160379347Y-99933229D01*
X160377323Y-99936194D01*
X160364294Y-99946763D01*
X160346333Y-99956894D01*
X160326873Y-99964850D01*
X160313975Y-99968235D01*
X160285834Y-99969393D01*
X160259307Y-99963155D01*
X160235380Y-99950570D01*
X160215038Y-99932687D01*
X160199269Y-99910554D01*
X160189059Y-99885220D01*
X160185394Y-99857732D01*
X160187967Y-99834306D01*
X160190654Y-99827595D01*
X160197165Y-99814457D01*
X160207548Y-99794809D01*
X160221846Y-99768570D01*
X160240107Y-99735659D01*
X160262376Y-99695994D01*
X160288699Y-99649495D01*
X160319121Y-99596079D01*
X160353689Y-99535666D01*
X160392448Y-99468174D01*
X160435443Y-99393522D01*
X160462011Y-99347482D01*
X160495701Y-99289091D01*
X160528357Y-99232410D01*
X160559712Y-99177907D01*
X160589500Y-99126047D01*
X160617453Y-99077297D01*
X160643306Y-99032125D01*
X160666792Y-98990996D01*
X160687644Y-98954377D01*
X160705596Y-98922736D01*
X160720382Y-98896538D01*
X160731735Y-98876251D01*
X160739388Y-98862341D01*
X160743076Y-98855275D01*
X160743132Y-98855152D01*
X160750470Y-98836432D01*
X160756933Y-98815649D01*
X160759827Y-98803541D01*
X160762991Y-98777230D01*
X160763456Y-98746949D01*
X160761410Y-98715882D01*
X160757041Y-98687212D01*
X160751760Y-98667440D01*
X160748898Y-98661504D01*
X160742011Y-98648474D01*
X160731251Y-98628620D01*
X160716768Y-98602213D01*
X160698716Y-98569522D01*
X160677244Y-98530819D01*
X160652505Y-98486373D01*
X160624650Y-98436456D01*
X160593831Y-98381337D01*
X160560200Y-98321287D01*
X160523907Y-98256577D01*
X160485105Y-98187477D01*
X160443945Y-98114257D01*
X160400578Y-98037188D01*
X160355157Y-97956540D01*
X160307832Y-97872584D01*
X160258756Y-97785590D01*
X160208079Y-97695828D01*
X160155953Y-97603569D01*
X160112413Y-97526557D01*
X160061327Y-97436219D01*
X160011272Y-97347693D01*
X159962413Y-97261269D01*
X159914913Y-97177237D01*
X159868935Y-97095886D01*
X159824644Y-97017507D01*
X159782202Y-96942390D01*
X159741774Y-96870824D01*
X159703524Y-96803100D01*
X159667615Y-96739507D01*
X159634210Y-96680335D01*
X159603474Y-96625875D01*
X159575571Y-96576417D01*
X159550663Y-96532249D01*
X159528915Y-96493663D01*
X159510490Y-96460948D01*
X159495552Y-96434394D01*
X159484266Y-96414291D01*
X159476793Y-96400930D01*
X159473299Y-96394599D01*
X159473115Y-96394249D01*
X159467354Y-96380748D01*
X159461111Y-96362806D01*
X159455714Y-96344251D01*
X159455606Y-96343830D01*
X159454217Y-96338102D01*
X159452994Y-96332089D01*
X159451927Y-96325242D01*
X159451004Y-96317013D01*
X159450216Y-96306855D01*
X159449551Y-96294219D01*
X159449000Y-96278557D01*
X159448551Y-96259321D01*
X159448195Y-96235962D01*
X159447920Y-96207933D01*
X159447717Y-96174685D01*
X159447574Y-96135671D01*
X159447482Y-96090342D01*
X159447429Y-96038150D01*
X159447405Y-95978546D01*
X159447400Y-95916294D01*
X159447400Y-95520843D01*
X159424107Y-95499554D01*
X159407041Y-95481493D01*
X159392480Y-95460097D01*
X159383312Y-95442947D01*
X159374646Y-95424661D01*
X159369217Y-95410198D01*
X159366096Y-95396017D01*
X159364357Y-95378576D01*
X159363753Y-95368239D01*
X159364761Y-95325637D01*
X159372654Y-95287642D01*
X159387670Y-95253621D01*
X159410045Y-95222939D01*
X159422970Y-95209681D01*
X159455035Y-95183948D01*
X159488663Y-95166240D01*
X159524901Y-95156128D01*
X159561700Y-95153167D01*
X159603362Y-95157124D01*
G37*
%TD*%
M02*
