M48
; DRILL file {KiCad (6.0.1-0)} date 2022 November 21, Monday 00:33:50
; FORMAT={-:-/ absolute / inch / decimal}
; #@! TF.CreationDate,2022-11-21T00:33:50+01:00
; #@! TF.GenerationSoftware,Kicad,Pcbnew,(6.0.1-0)
; #@! TF.FileFunction,Plated,1,2,PTH
FMAT,2
INCH
; #@! TA.AperFunction,Plated,PTH,ViaDrill
T1C0.0157
; #@! TA.AperFunction,Plated,PTH,ComponentDrill
T2C0.0236
; #@! TA.AperFunction,Plated,PTH,ComponentDrill
T3C0.0335
%
G90
G05
T1
X5.511Y-3.5882
X5.5123Y-3.0709
X5.6004Y-4.8076
X5.6035Y-3.6197
X5.6307Y-4.4539
X5.6311Y-4.6807
X5.6618Y-3.9913
X5.72Y-2.9
X5.72Y-3.0
X5.72Y-3.1
X5.72Y-3.2
X5.72Y-3.28
X5.72Y-3.38
X5.72Y-3.48
X5.7442Y-4.7437
X5.7528Y-4.8382
X5.8Y-2.9
X5.8Y-3.0
X5.8Y-3.1
X5.8Y-3.2
X5.8Y-3.28
X5.8Y-3.38
X5.8Y-3.48
X5.88Y-2.9
X5.88Y-3.0
X5.88Y-3.1
X5.88Y-3.2
X5.88Y-3.28
X5.88Y-3.38
X5.88Y-3.48
X5.8869Y-4.7748
X5.92Y-4.26
X5.96Y-2.9
X5.96Y-3.0
X5.96Y-3.1
X5.96Y-3.2
X5.96Y-3.28
X5.96Y-3.38
X5.96Y-3.48
X5.9886Y-4.7764
X6.0173Y-4.1594
X6.0201Y-4.6374
X6.04Y-2.9
X6.04Y-3.0
X6.04Y-3.1
X6.04Y-3.2
X6.04Y-3.28
X6.04Y-3.38
X6.04Y-3.48
X6.04Y-4.5
X6.0994Y-4.6712
X6.1041Y-4.6361
X6.12Y-2.9
X6.12Y-3.0
X6.12Y-3.1
X6.12Y-3.2
X6.12Y-3.28
X6.12Y-3.38
X6.12Y-3.48
X6.1228Y-4.0724
X6.1631Y-4.4989
X6.1894Y-4.7732
X6.2Y-2.9
X6.2Y-3.0
X6.2Y-3.1
X6.2Y-3.2
X6.2Y-3.28
X6.2Y-3.38
X6.2Y-3.48
X6.2272Y-4.0719
X6.272Y-3.6197
X6.2858Y-4.3303
X6.2978Y-4.44
X6.3Y-4.8024
X6.3054Y-4.8374
X6.3331Y-3.0047
X6.3343Y-3.1933
X6.3504Y-2.8465
X6.3539Y-4.56
X6.4Y-3.62
X6.4051Y-4.7484
X6.4134Y-3.3661
X6.452Y-4.5087
T3
X5.8416Y-4.8424
X6.0384Y-4.8424
T2
G00X5.8022Y-4.9625
M15
G01X5.8022Y-4.9349
M16
G05
G00X6.0778Y-4.9349
M15
G01X6.0778Y-4.9625
M16
G05
T0
M30
